<svg width="17" height="17" viewBox="0 0 17 17" fill="none" xmlns="http://www.w3.org/2000/svg">
<path d="M6.27728 2.58881H10.2148V1.49506C10.2148 1.13959 10.4882 0.838806 10.871 0.838806C11.2265 0.838806 11.5273 1.13959 11.5273 1.49506V2.58881H12.621C13.5781 2.58881 14.371 3.38177 14.371 4.33881V13.0888C14.371 14.0732 13.5781 14.8388 12.621 14.8388H3.87103C2.88666 14.8388 2.12103 14.0732 2.12103 13.0888V4.33881C2.12103 3.38177 2.88666 2.58881 3.87103 2.58881H4.96478V1.49506C4.96478 1.13959 5.23822 0.838806 5.62103 0.838806C5.9765 0.838806 6.27728 1.13959 6.27728 1.49506V2.58881ZM3.43353 13.0888C3.43353 13.3349 3.62494 13.5263 3.87103 13.5263H12.621C12.8398 13.5263 13.0585 13.3349 13.0585 13.0888V6.08881H3.43353V13.0888Z" fill="#1F71C0"/>
</svg>
