<svg width="17" height="17" viewBox="0 0 17 17" fill="none" xmlns="http://www.w3.org/2000/svg">
<path d="M13.4687 3.46381C14.4531 3.46381 15.2187 4.25677 15.2187 5.21381V12.2138C15.2187 13.1982 14.4257 13.9638 13.4687 13.9638H2.96869C1.98431 13.9638 1.21869 13.1982 1.21869 12.2138V3.46381C1.21869 2.50677 1.98431 1.71381 2.96869 1.71381H6.19525C6.6601 1.71381 7.0976 1.90521 7.42572 2.23334L8.76556 3.46381H13.4687ZM13.9062 12.2138V5.21381C13.9062 4.99506 13.6874 4.77631 13.4687 4.77631H8.21869L6.46869 3.16302C6.38666 3.08099 6.27728 3.02631 6.16791 3.02631H2.96869C2.7226 3.02631 2.53119 3.24506 2.53119 3.46381V12.2138C2.53119 12.4599 2.7226 12.6513 2.96869 12.6513H13.4687C13.6874 12.6513 13.9062 12.4599 13.9062 12.2138Z" fill="#1F71C0"/>
</svg>
