<svg width="17" height="17" viewBox="0 0 17 17" fill="none" xmlns="http://www.w3.org/2000/svg">
<path d="M5.18353 6.52631C5.64838 6.52631 6.03119 6.93646 6.03119 7.40131C6.03119 7.89349 5.64838 8.27631 5.18353 8.27631C4.69135 8.27631 4.30853 7.89349 4.30853 7.40131C4.30853 6.93646 4.69135 6.52631 5.18353 6.52631ZM8.24603 6.52631C8.71088 6.52631 9.09369 6.93646 9.09369 7.40131C9.09369 7.83881 8.68353 8.24896 8.24603 8.24896C7.78119 8.24896 7.37103 7.86615 7.37103 7.40131C7.37103 6.90912 7.75385 6.52631 8.24603 6.52631ZM11.3085 6.52631C11.7734 6.52631 12.1835 6.93646 12.1562 7.40131C12.1562 7.89349 11.7734 8.27631 11.3085 8.27631C10.8437 8.27631 10.4335 7.89349 10.4335 7.40131C10.4335 6.93646 10.8163 6.52631 11.3085 6.52631ZM8.24603 1.71381C12.1015 1.71381 15.2187 4.31146 15.2187 7.42865C15.2187 10.5458 12.1015 13.0888 8.24603 13.0888C7.34369 13.0888 6.46869 12.9521 5.70306 12.706C4.88275 13.2802 3.57025 13.9638 1.90228 13.9638C1.62885 13.9638 1.38275 13.8271 1.30072 13.5536C1.21869 13.3076 1.24603 13.0341 1.43744 12.8427C1.43744 12.8427 2.2851 11.913 2.69525 10.8466C1.79291 9.88959 1.24603 8.68646 1.24603 7.40131C1.24603 4.25677 4.36322 1.71381 8.24603 1.71381ZM8.24603 11.7763C11.3632 11.7763 13.8788 9.8349 13.8788 7.40131C13.8788 4.99506 11.3359 3.02631 8.21869 3.02631C5.1015 3.02631 2.55853 4.99506 2.55853 7.40131C2.55853 8.57709 3.13275 9.45209 3.62494 9.97162L4.19916 10.5732L3.89838 11.3388C3.76166 11.7216 3.57025 12.1044 3.3515 12.4326C4.00775 12.2138 4.55463 11.913 4.93744 11.6396L5.45697 11.2568L6.08588 11.4482C6.76947 11.6669 7.50775 11.7763 8.24603 11.7763Z" fill="#1F71C0"/>
</svg>
