<svg width="16" height="16" viewBox="0 0 16 16" fill="none" xmlns="http://www.w3.org/2000/svg">
<path d="M7.98967 13.625C9.2165 13.6247 10.4096 13.2234 11.3872 12.4821C12.3647 11.7408 13.0731 10.7003 13.4044 9.51901C13.7357 8.33775 13.6718 7.08058 13.2223 5.93906C12.7728 4.79754 11.9624 3.83427 10.9146 3.19606C9.86686 2.55784 8.63917 2.27967 7.41865 2.40394C6.19813 2.5282 5.0517 3.04809 4.15406 3.88438C3.25643 4.72066 2.65682 5.82749 2.4466 7.03617C2.23639 8.24486 2.42709 9.48914 2.98967 10.5794L2.36467 13.625L5.41029 13C6.18279 13.3994 7.06029 13.625 7.98967 13.625Z" stroke="#3E3C3C" stroke-linecap="round" stroke-linejoin="round"/>
<path d="M5.17712 8H5.18337V8.00625H5.17712V8ZM7.98962 8H7.99587V8.00625H7.98962V8ZM10.8021 8H10.8084V8.00625H10.8021V8Z" stroke="#3E3C3C" stroke-width="2" stroke-linejoin="round"/>
</svg>
