<svg width="24" height="24" viewBox="0 0 24 24" fill="none" xmlns="http://www.w3.org/2000/svg">
<path d="M4.5 7C4.5 6.1875 5.15625 5.5 6 5.5C6.8125 5.5 7.5 6.1875 7.5 7C7.5 7.84375 6.8125 8.5 6 8.5C5.15625 8.5 4.5 7.84375 4.5 7ZM19 6C19.5312 6 20 6.46875 20 7C20 7.5625 19.5312 8 19 8H10C9.4375 8 9 7.5625 9 7C9 6.46875 9.4375 6 10 6H19ZM19 11C19.5312 11 20 11.4688 20 12C20 12.5625 19.5312 13 19 13H10C9.4375 13 9 12.5625 9 12C9 11.4688 9.4375 11 10 11H19ZM19 16C19.5312 16 20 16.4688 20 17C20 17.5625 19.5312 18 19 18H10C9.4375 18 9 17.5625 9 17C9 16.4688 9.4375 16 10 16H19ZM4.5 17C4.5 16.1875 5.15625 15.5 6 15.5C6.8125 15.5 7.5 16.1875 7.5 17C7.5 17.8438 6.8125 18.5 6 18.5C5.15625 18.5 4.5 17.8438 4.5 17ZM7.5 12C7.5 12.8438 6.8125 13.5 6 13.5C5.15625 13.5 4.5 12.8438 4.5 12C4.5 11.1875 5.15625 10.5 6 10.5C6.8125 10.5 7.5 11.1875 7.5 12Z" fill="#3E3232"/>
</svg>
