<svg width="89" height="28" viewBox="0 0 89 28" fill="none" xmlns="http://www.w3.org/2000/svg">
<path d="M4.92682 10.3895C4.04948 10.3895 3.29815 10.2448 2.67282 9.95551C2.05682 9.65685 1.57615 9.22751 1.23082 8.66751C0.894818 8.09818 0.712818 7.41218 0.684818 6.60951C0.675484 6.20818 0.670818 5.77884 0.670818 5.32151C0.670818 4.86418 0.675484 4.43018 0.684818 4.01951C0.712818 3.23551 0.894818 2.56818 1.23082 2.01751C1.57615 1.46684 2.06148 1.04684 2.68682 0.757511C3.32148 0.458845 4.06815 0.309511 4.92682 0.309511C5.61748 0.309511 6.22415 0.398178 6.74682 0.575511C7.26948 0.752844 7.70815 0.986178 8.06282 1.27551C8.41748 1.55551 8.68815 1.86351 8.87482 2.19951C9.06148 2.53551 9.15948 2.85751 9.16882 3.16551C9.16882 3.24951 9.14082 3.32418 9.08482 3.38951C9.02882 3.44551 8.95415 3.47351 8.86082 3.47351H7.12482C7.03148 3.47351 6.95682 3.45484 6.90082 3.41751C6.85415 3.38018 6.81215 3.32418 6.77482 3.24951C6.70948 3.08151 6.60215 2.91351 6.45282 2.74551C6.31282 2.56818 6.12148 2.41884 5.87882 2.29751C5.63615 2.17618 5.31882 2.11551 4.92682 2.11551C4.33882 2.11551 3.87215 2.26951 3.52682 2.57751C3.19082 2.88551 3.00882 3.38951 2.98082 4.08951C2.95282 4.89218 2.95282 5.70884 2.98082 6.53951C3.00882 7.26751 3.19548 7.79018 3.54082 8.10751C3.89548 8.42484 4.36682 8.58351 4.95482 8.58351C5.33748 8.58351 5.67815 8.51818 5.97682 8.38751C6.28482 8.24751 6.52748 8.03285 6.70482 7.74351C6.88215 7.45418 6.97082 7.08551 6.97082 6.63751V6.28751H5.44482C5.35148 6.28751 5.27215 6.25484 5.20682 6.18951C5.14148 6.11484 5.10882 6.03084 5.10882 5.93751V5.04151C5.10882 4.93884 5.14148 4.85484 5.20682 4.78951C5.27215 4.72418 5.35148 4.69151 5.44482 4.69151H8.87482C8.97748 4.69151 9.06148 4.72418 9.12682 4.78951C9.19215 4.85484 9.22482 4.93884 9.22482 5.04151V6.56751C9.22482 7.37018 9.04748 8.05618 8.69282 8.62551C8.34748 9.19485 7.84815 9.63351 7.19482 9.94151C6.55082 10.2402 5.79482 10.3895 4.92682 10.3895ZM11.2823 10.2495C11.1796 10.2495 11.0956 10.2168 11.0303 10.1515C10.9649 10.0862 10.9323 10.0022 10.9323 9.89951V0.799512C10.9323 0.696845 10.9649 0.612845 11.0303 0.547511C11.0956 0.482178 11.1796 0.449511 11.2823 0.449511H17.6243C17.7269 0.449511 17.8109 0.482178 17.8763 0.547511C17.9416 0.612845 17.9743 0.696845 17.9743 0.799512V1.91951C17.9743 2.01284 17.9416 2.09218 17.8763 2.15751C17.8109 2.22284 17.7269 2.25551 17.6243 2.25551H13.0883V4.45351H17.3163C17.4189 4.45351 17.5029 4.48618 17.5683 4.55151C17.6336 4.61684 17.6663 4.70084 17.6663 4.80351V5.83951C17.6663 5.93284 17.6336 6.01218 17.5683 6.07751C17.5029 6.14284 17.4189 6.17551 17.3163 6.17551H13.0883V8.44351H17.7363C17.8389 8.44351 17.9229 8.47618 17.9883 8.54151C18.0536 8.60684 18.0863 8.69085 18.0863 8.79351V9.89951C18.0863 10.0022 18.0536 10.0862 17.9883 10.1515C17.9229 10.2168 17.8389 10.2495 17.7363 10.2495H11.2823ZM26.3685 10.3895C25.4725 10.3895 24.7211 10.2588 24.1145 9.99751C23.5171 9.73618 23.0645 9.39551 22.7565 8.97551C22.4485 8.55551 22.2851 8.10751 22.2665 7.63151C22.2665 7.55684 22.2945 7.49151 22.3505 7.43551C22.4065 7.37018 22.4765 7.33751 22.5605 7.33751H24.0585C24.1798 7.33751 24.2731 7.36551 24.3385 7.42151C24.4038 7.46818 24.4645 7.52884 24.5205 7.60351C24.5858 7.76218 24.6885 7.91618 24.8285 8.06551C24.9778 8.21485 25.1785 8.34085 25.4305 8.44351C25.6825 8.53684 25.9951 8.58351 26.3685 8.58351C26.9751 8.58351 27.4278 8.48551 27.7265 8.28951C28.0345 8.09351 28.1885 7.82751 28.1885 7.49151C28.1885 7.24884 28.1045 7.05284 27.9365 6.90351C27.7778 6.75418 27.5211 6.61884 27.1665 6.49751C26.8211 6.37618 26.3591 6.24551 25.7805 6.10551C25.0805 5.95618 24.4831 5.76484 23.9885 5.53151C23.5031 5.28884 23.1345 4.98084 22.8825 4.60751C22.6398 4.22484 22.5185 3.75351 22.5185 3.19351C22.5185 2.63351 22.6725 2.13884 22.9805 1.70951C23.2885 1.27084 23.7225 0.930178 24.2825 0.687511C24.8425 0.435511 25.5098 0.309511 26.2845 0.309511C26.9098 0.309511 27.4605 0.393511 27.9365 0.561511C28.4218 0.729511 28.8231 0.948845 29.1405 1.21951C29.4671 1.49018 29.7145 1.77951 29.8825 2.08751C30.0505 2.39551 30.1391 2.69418 30.1485 2.98351C30.1485 3.05818 30.1205 3.12818 30.0645 3.19351C30.0085 3.24951 29.9385 3.27751 29.8545 3.27751H28.2865C28.1931 3.27751 28.1091 3.25884 28.0345 3.22151C27.9598 3.18418 27.8991 3.11884 27.8525 3.02551C27.7965 2.78284 27.6285 2.57284 27.3485 2.39551C27.0778 2.20884 26.7231 2.11551 26.2845 2.11551C25.8271 2.11551 25.4631 2.19951 25.1925 2.36751C24.9311 2.53551 24.8005 2.79218 24.8005 3.13751C24.8005 3.36151 24.8658 3.55284 24.9965 3.71151C25.1365 3.86084 25.3651 3.99618 25.6825 4.11751C26.0091 4.22951 26.4385 4.35551 26.9705 4.49551C27.7918 4.66351 28.4591 4.86418 28.9725 5.09751C29.4858 5.33084 29.8638 5.63418 30.1065 6.00751C30.3491 6.37151 30.4705 6.83351 30.4705 7.39351C30.4705 8.01884 30.2931 8.55551 29.9385 9.00351C29.5931 9.45151 29.1125 9.79685 28.4965 10.0395C27.8898 10.2728 27.1805 10.3895 26.3685 10.3895ZM35.3193 10.2495C34.7406 10.2495 34.246 10.1562 33.8353 9.96951C33.4246 9.77351 33.112 9.47485 32.8973 9.07351C32.692 8.67218 32.5893 8.16818 32.5893 7.56151V4.62151H31.4973C31.3946 4.62151 31.3106 4.58884 31.2453 4.52351C31.18 4.45818 31.1473 4.37418 31.1473 4.27151V3.31951C31.1473 3.21684 31.18 3.13284 31.2453 3.06751C31.3106 3.00218 31.3946 2.96951 31.4973 2.96951H32.5893V0.659511C32.5893 0.556844 32.622 0.472845 32.6873 0.407512C32.762 0.342178 32.846 0.309511 32.9393 0.309511H34.3113C34.414 0.309511 34.498 0.342178 34.5633 0.407512C34.6286 0.472845 34.6613 0.556844 34.6613 0.659511V2.96951H36.4113C36.5046 2.96951 36.584 3.00218 36.6493 3.06751C36.7146 3.13284 36.7473 3.21684 36.7473 3.31951V4.27151C36.7473 4.37418 36.7146 4.45818 36.6493 4.52351C36.584 4.58884 36.5046 4.62151 36.4113 4.62151H34.6613V7.39351C34.6613 7.74818 34.722 8.02818 34.8433 8.23351C34.974 8.42951 35.198 8.52751 35.5153 8.52751H36.5373C36.6306 8.52751 36.71 8.56018 36.7753 8.62551C36.8406 8.69084 36.8733 8.77018 36.8733 8.86351V9.89951C36.8733 10.0022 36.8406 10.0862 36.7753 10.1515C36.71 10.2168 36.6306 10.2495 36.5373 10.2495H35.3193ZM41.4267 10.3895C40.652 10.3895 40.0033 10.2635 39.4807 10.0115C38.958 9.75018 38.5567 9.38151 38.2767 8.90551C38.006 8.42951 37.8567 7.87418 37.8287 7.23951C37.8193 7.05284 37.8147 6.84284 37.8147 6.60951C37.8147 6.36684 37.8193 6.15684 37.8287 5.97951C37.8567 5.33551 38.0153 4.78018 38.3047 4.31351C38.594 3.83751 39 3.47351 39.5227 3.22151C40.0453 2.96018 40.68 2.82951 41.4267 2.82951C42.164 2.82951 42.794 2.96018 43.3167 3.22151C43.8393 3.47351 44.2453 3.83751 44.5347 4.31351C44.824 4.78018 44.9827 5.33551 45.0107 5.97951C45.0293 6.15684 45.0387 6.36684 45.0387 6.60951C45.0387 6.84284 45.0293 7.05284 45.0107 7.23951C44.9827 7.87418 44.8287 8.42951 44.5487 8.90551C44.278 9.38151 43.8813 9.75018 43.3587 10.0115C42.836 10.2635 42.192 10.3895 41.4267 10.3895ZM41.4267 8.84951C41.884 8.84951 42.2293 8.70951 42.4627 8.42951C42.696 8.14018 42.822 7.72018 42.8407 7.16951C42.85 7.02951 42.8547 6.84284 42.8547 6.60951C42.8547 6.37618 42.85 6.18951 42.8407 6.04951C42.822 5.50818 42.696 5.09284 42.4627 4.80351C42.2293 4.51418 41.884 4.36951 41.4267 4.36951C40.9693 4.36951 40.6193 4.51418 40.3767 4.80351C40.1433 5.09284 40.0173 5.50818 39.9987 6.04951C39.9893 6.18951 39.9847 6.37618 39.9847 6.60951C39.9847 6.84284 39.9893 7.02951 39.9987 7.16951C40.0173 7.72018 40.1433 8.14018 40.3767 8.42951C40.6193 8.70951 40.9693 8.84951 41.4267 8.84951ZM48.8054 10.2495C48.6654 10.2495 48.5581 10.2168 48.4834 10.1515C48.4181 10.0768 48.3621 9.99285 48.3154 9.89951L45.6834 3.40351C45.6648 3.36618 45.6554 3.32418 45.6554 3.27751C45.6554 3.19351 45.6834 3.12351 45.7394 3.06751C45.8048 3.00218 45.8794 2.96951 45.9634 2.96951H47.3214C47.4428 2.96951 47.5314 3.00218 47.5874 3.06751C47.6528 3.13284 47.6948 3.19351 47.7134 3.24951L49.4354 7.86951L51.1574 3.24951C51.1854 3.19351 51.2274 3.13284 51.2834 3.06751C51.3488 3.00218 51.4374 2.96951 51.5494 2.96951H52.9074C52.9914 2.96951 53.0614 3.00218 53.1174 3.06751C53.1828 3.12351 53.2154 3.19351 53.2154 3.27751C53.2154 3.32418 53.2108 3.36618 53.2014 3.40351L50.5554 9.89951C50.5181 9.99285 50.4621 10.0768 50.3874 10.1515C50.3128 10.2168 50.2054 10.2495 50.0654 10.2495H48.8054ZM57.3798 10.3895C56.3065 10.3895 55.4525 10.0908 54.8178 9.49351C54.1925 8.89618 53.8611 8.02818 53.8238 6.88951C53.8238 6.81484 53.8238 6.71684 53.8238 6.59551C53.8238 6.46484 53.8238 6.36218 53.8238 6.28751C53.8611 5.56884 54.0245 4.95284 54.3138 4.43951C54.6031 3.91684 55.0091 3.52018 55.5318 3.24951C56.0545 2.96951 56.6658 2.82951 57.3658 2.82951C58.1498 2.82951 58.8031 2.99284 59.3258 3.31951C59.8578 3.63684 60.2545 4.07551 60.5158 4.63551C60.7865 5.18618 60.9218 5.82084 60.9218 6.53951V6.86151C60.9218 6.95484 60.8845 7.03418 60.8098 7.09951C60.7445 7.16484 60.6651 7.19751 60.5718 7.19751H55.9938C55.9938 7.20684 55.9938 7.22551 55.9938 7.25351C55.9938 7.27218 55.9938 7.29084 55.9938 7.30951C56.0031 7.60818 56.0591 7.88351 56.1618 8.13551C56.2738 8.37818 56.4278 8.57418 56.6238 8.72351C56.8291 8.87285 57.0718 8.94751 57.3518 8.94751C57.5851 8.94751 57.7765 8.91485 57.9258 8.84951C58.0751 8.78418 58.1965 8.70484 58.2898 8.61151C58.3925 8.51818 58.4671 8.43884 58.5138 8.37351C58.5978 8.28018 58.6631 8.22418 58.7098 8.20551C58.7658 8.17751 58.8498 8.16351 58.9618 8.16351H60.4178C60.5111 8.16351 60.5858 8.19151 60.6418 8.24751C60.7071 8.29418 60.7351 8.36418 60.7258 8.45751C60.7165 8.60684 60.6371 8.79351 60.4878 9.01751C60.3478 9.23218 60.1378 9.44684 59.8578 9.66151C59.5778 9.86685 59.2278 10.0395 58.8078 10.1795C58.3971 10.3195 57.9211 10.3895 57.3798 10.3895ZM55.9938 5.92351H58.7378V5.89551C58.7378 5.55951 58.6818 5.27018 58.5698 5.02751C58.4671 4.77551 58.3131 4.57951 58.1078 4.43951C57.9025 4.29951 57.6551 4.22951 57.3658 4.22951C57.0765 4.22951 56.8291 4.29951 56.6238 4.43951C56.4185 4.57951 56.2598 4.77551 56.1478 5.02751C56.0451 5.27018 55.9938 5.55951 55.9938 5.89551V5.92351ZM67.743 10.2495C67.6403 10.2495 67.5563 10.2168 67.491 10.1515C67.4256 10.0862 67.393 10.0022 67.393 9.89951V2.39551H64.845C64.7516 2.39551 64.6723 2.36284 64.607 2.29751C64.5416 2.23218 64.509 2.15284 64.509 2.05951V0.799512C64.509 0.696845 64.5416 0.612845 64.607 0.547511C64.6723 0.482178 64.7516 0.449511 64.845 0.449511H72.181C72.2836 0.449511 72.3676 0.482178 72.433 0.547511C72.4983 0.612845 72.531 0.696845 72.531 0.799512V2.05951C72.531 2.15284 72.4983 2.23218 72.433 2.29751C72.3676 2.36284 72.2836 2.39551 72.181 2.39551H69.647V9.89951C69.647 10.0022 69.6143 10.0862 69.549 10.1515C69.4836 10.2168 69.3996 10.2495 69.297 10.2495H67.743ZM75.7978 10.3895C75.0231 10.3895 74.3744 10.2635 73.8518 10.0115C73.3291 9.75018 72.9278 9.38151 72.6478 8.90551C72.3771 8.42951 72.2278 7.87418 72.1998 7.23951C72.1904 7.05284 72.1858 6.84284 72.1858 6.60951C72.1858 6.36684 72.1904 6.15684 72.1998 5.97951C72.2278 5.33551 72.3864 4.78018 72.6758 4.31351C72.9651 3.83751 73.3711 3.47351 73.8938 3.22151C74.4164 2.96018 75.0511 2.82951 75.7978 2.82951C76.5351 2.82951 77.1651 2.96018 77.6878 3.22151C78.2104 3.47351 78.6164 3.83751 78.9058 4.31351C79.1951 4.78018 79.3538 5.33551 79.3818 5.97951C79.4004 6.15684 79.4098 6.36684 79.4098 6.60951C79.4098 6.84284 79.4004 7.05284 79.3818 7.23951C79.3538 7.87418 79.1998 8.42951 78.9198 8.90551C78.6491 9.38151 78.2524 9.75018 77.7298 10.0115C77.2071 10.2635 76.5631 10.3895 75.7978 10.3895ZM75.7978 8.84951C76.2551 8.84951 76.6004 8.70951 76.8338 8.42951C77.0671 8.14018 77.1931 7.72018 77.2118 7.16951C77.2211 7.02951 77.2258 6.84284 77.2258 6.60951C77.2258 6.37618 77.2211 6.18951 77.2118 6.04951C77.1931 5.50818 77.0671 5.09284 76.8338 4.80351C76.6004 4.51418 76.2551 4.36951 75.7978 4.36951C75.3404 4.36951 74.9904 4.51418 74.7478 4.80351C74.5144 5.09284 74.3884 5.50818 74.3698 6.04951C74.3604 6.18951 74.3558 6.37618 74.3558 6.60951C74.3558 6.84284 74.3604 7.02951 74.3698 7.16951C74.3884 7.72018 74.5144 8.14018 74.7478 8.42951C74.9904 8.70951 75.3404 8.84951 75.7978 8.84951ZM81.224 12.9095C81.1213 12.9095 81.0373 12.8768 80.972 12.8115C80.9066 12.7462 80.874 12.6622 80.874 12.5595V3.31951C80.874 3.21684 80.9066 3.13284 80.972 3.06751C81.0373 3.00218 81.1213 2.96951 81.224 2.96951H82.554C82.6566 2.96951 82.7406 3.00218 82.806 3.06751C82.8713 3.13284 82.904 3.21684 82.904 3.31951V3.85151C83.128 3.55284 83.4173 3.31018 83.772 3.12351C84.1266 2.92751 84.57 2.82951 85.102 2.82951C85.5873 2.82951 86.0073 2.90884 86.362 3.06751C86.726 3.21684 87.0293 3.43618 87.272 3.72551C87.524 4.00551 87.7153 4.34618 87.846 4.74751C87.986 5.14884 88.0653 5.60151 88.084 6.10551C88.0933 6.28284 88.098 6.45084 88.098 6.60951C88.098 6.76818 88.0933 6.94084 88.084 7.12751C88.0746 7.60351 88 8.04218 87.86 8.44351C87.7293 8.84484 87.538 9.19018 87.286 9.47951C87.034 9.76885 86.726 9.99285 86.362 10.1515C86.0073 10.3102 85.5873 10.3895 85.102 10.3895C84.626 10.3895 84.2106 10.3055 83.856 10.1375C83.5106 9.96018 83.226 9.72218 83.002 9.42351V12.5595C83.002 12.6622 82.9693 12.7462 82.904 12.8115C82.8386 12.8768 82.7593 12.9095 82.666 12.9095H81.224ZM84.472 8.70951C84.8266 8.70951 85.1066 8.63484 85.312 8.48551C85.5173 8.32684 85.662 8.12151 85.746 7.86951C85.8393 7.61751 85.8953 7.34218 85.914 7.04351C85.9326 6.75418 85.9326 6.46484 85.914 6.17551C85.8953 5.87684 85.8393 5.60151 85.746 5.34951C85.662 5.09751 85.5173 4.89684 85.312 4.74751C85.1066 4.58884 84.8266 4.50951 84.472 4.50951C84.1266 4.50951 83.8466 4.58884 83.632 4.74751C83.4173 4.90618 83.2633 5.10684 83.17 5.34951C83.0766 5.59218 83.0206 5.85351 83.002 6.13351C82.9926 6.30151 82.988 6.47418 82.988 6.65151C82.988 6.82885 82.9926 7.00618 83.002 7.18351C83.0113 7.44484 83.0673 7.69218 83.17 7.92551C83.282 8.14951 83.4406 8.33618 83.646 8.48551C83.8606 8.63484 84.136 8.70951 84.472 8.70951ZM12.1846 27.2495C12.0819 27.2495 11.9979 27.2168 11.9326 27.1515C11.8673 27.0862 11.8346 27.0022 11.8346 26.8995V17.7995C11.8346 17.6968 11.8673 17.6128 11.9326 17.5475C11.9979 17.4822 12.0819 17.4495 12.1846 17.4495H16.0066C16.7626 17.4495 17.4159 17.5662 17.9666 17.7995C18.5266 18.0328 18.9606 18.3875 19.2686 18.8635C19.5859 19.3302 19.7446 19.9135 19.7446 20.6135C19.7446 21.3228 19.5859 21.9108 19.2686 22.3775C18.9606 22.8348 18.5266 23.1755 17.9666 23.3995C17.4159 23.6235 16.7626 23.7355 16.0066 23.7355H14.1306V26.8995C14.1306 27.0022 14.0979 27.0862 14.0326 27.1515C13.9673 27.2168 13.8833 27.2495 13.7806 27.2495H12.1846ZM14.0886 21.9995H15.9366C16.4126 21.9995 16.7813 21.8828 17.0426 21.6495C17.3133 21.4162 17.4486 21.0662 17.4486 20.5995C17.4486 20.1888 17.3273 19.8528 17.0846 19.5915C16.8513 19.3302 16.4686 19.1995 15.9366 19.1995H14.0886V21.9995ZM21.3545 27.2495C21.2612 27.2495 21.1818 27.2168 21.1165 27.1515C21.0512 27.0862 21.0185 27.0022 21.0185 26.8995V20.3195C21.0185 20.2262 21.0512 20.1468 21.1165 20.0815C21.1818 20.0068 21.2612 19.9695 21.3545 19.9695H22.7265C22.8198 19.9695 22.8992 20.0068 22.9645 20.0815C23.0392 20.1468 23.0765 20.2262 23.0765 20.3195V20.8795C23.3098 20.5902 23.5945 20.3662 23.9305 20.2075C24.2758 20.0488 24.6725 19.9695 25.1205 19.9695H25.7225C25.8158 19.9695 25.8952 20.0022 25.9605 20.0675C26.0258 20.1328 26.0585 20.2168 26.0585 20.3195V21.5235C26.0585 21.6262 26.0258 21.7102 25.9605 21.7755C25.8952 21.8408 25.8158 21.8735 25.7225 21.8735H24.4905C24.0798 21.8735 23.7578 21.9902 23.5245 22.2235C23.2912 22.4475 23.1745 22.7695 23.1745 23.1895V26.8995C23.1745 27.0022 23.1418 27.0862 23.0765 27.1515C23.0112 27.2168 22.9272 27.2495 22.8245 27.2495H21.3545ZM30.3525 27.3895C29.5778 27.3895 28.9291 27.2635 28.4065 27.0115C27.8838 26.7502 27.4825 26.3815 27.2025 25.9055C26.9318 25.4295 26.7825 24.8742 26.7545 24.2395C26.7451 24.0528 26.7405 23.8428 26.7405 23.6095C26.7405 23.3668 26.7451 23.1568 26.7545 22.9795C26.7825 22.3355 26.9411 21.7802 27.2305 21.3135C27.5198 20.8375 27.9258 20.4735 28.4485 20.2215C28.9711 19.9602 29.6058 19.8295 30.3525 19.8295C31.0898 19.8295 31.7198 19.9602 32.2425 20.2215C32.7651 20.4735 33.1711 20.8375 33.4605 21.3135C33.7498 21.7802 33.9085 22.3355 33.9365 22.9795C33.9551 23.1568 33.9645 23.3668 33.9645 23.6095C33.9645 23.8428 33.9551 24.0528 33.9365 24.2395C33.9085 24.8742 33.7545 25.4295 33.4745 25.9055C33.2038 26.3815 32.8071 26.7502 32.2845 27.0115C31.7618 27.2635 31.1178 27.3895 30.3525 27.3895ZM30.3525 25.8495C30.8098 25.8495 31.1551 25.7095 31.3885 25.4295C31.6218 25.1402 31.7478 24.7202 31.7665 24.1695C31.7758 24.0295 31.7805 23.8428 31.7805 23.6095C31.7805 23.3762 31.7758 23.1895 31.7665 23.0495C31.7478 22.5082 31.6218 22.0928 31.3885 21.8035C31.1551 21.5142 30.8098 21.3695 30.3525 21.3695C29.8951 21.3695 29.5451 21.5142 29.3025 21.8035C29.0691 22.0928 28.9431 22.5082 28.9245 23.0495C28.9151 23.1895 28.9105 23.3762 28.9105 23.6095C28.9105 23.8428 28.9151 24.0295 28.9245 24.1695C28.9431 24.7202 29.0691 25.1402 29.3025 25.4295C29.5451 25.7095 29.8951 25.8495 30.3525 25.8495ZM38.8876 27.2495C38.309 27.2495 37.8143 27.1562 37.4036 26.9695C36.993 26.7735 36.6803 26.4748 36.4656 26.0735C36.2603 25.6722 36.1576 25.1682 36.1576 24.5615V21.6215H35.0656C34.963 21.6215 34.879 21.5888 34.8136 21.5235C34.7483 21.4582 34.7156 21.3742 34.7156 21.2715V20.3195C34.7156 20.2168 34.7483 20.1328 34.8136 20.0675C34.879 20.0022 34.963 19.9695 35.0656 19.9695H36.1576V17.6595C36.1576 17.5568 36.1903 17.4728 36.2556 17.4075C36.3303 17.3422 36.4143 17.3095 36.5076 17.3095H37.8796C37.9823 17.3095 38.0663 17.3422 38.1316 17.4075C38.197 17.4728 38.2296 17.5568 38.2296 17.6595V19.9695H39.9796C40.073 19.9695 40.1523 20.0022 40.2176 20.0675C40.283 20.1328 40.3156 20.2168 40.3156 20.3195V21.2715C40.3156 21.3742 40.283 21.4582 40.2176 21.5235C40.1523 21.5888 40.073 21.6215 39.9796 21.6215H38.2296V24.3935C38.2296 24.7482 38.2903 25.0282 38.4116 25.2335C38.5423 25.4295 38.7663 25.5275 39.0836 25.5275H40.1056C40.199 25.5275 40.2783 25.5602 40.3436 25.6255C40.409 25.6908 40.4416 25.7702 40.4416 25.8635V26.8995C40.4416 27.0022 40.409 27.0862 40.3436 27.1515C40.2783 27.2168 40.199 27.2495 40.1056 27.2495H38.8876ZM44.911 27.3895C43.8377 27.3895 42.9837 27.0908 42.349 26.4935C41.7237 25.8962 41.3924 25.0282 41.355 23.8895C41.355 23.8148 41.355 23.7168 41.355 23.5955C41.355 23.4648 41.355 23.3622 41.355 23.2875C41.3924 22.5688 41.5557 21.9528 41.845 21.4395C42.1344 20.9168 42.5404 20.5202 43.063 20.2495C43.5857 19.9695 44.197 19.8295 44.897 19.8295C45.681 19.8295 46.3344 19.9928 46.857 20.3195C47.389 20.6368 47.7857 21.0755 48.047 21.6355C48.3177 22.1862 48.453 22.8208 48.453 23.5395V23.8615C48.453 23.9548 48.4157 24.0342 48.341 24.0995C48.2757 24.1648 48.1964 24.1975 48.103 24.1975H43.525C43.525 24.2068 43.525 24.2255 43.525 24.2535C43.525 24.2722 43.525 24.2908 43.525 24.3095C43.5344 24.6082 43.5904 24.8835 43.693 25.1355C43.805 25.3782 43.959 25.5742 44.155 25.7235C44.3604 25.8728 44.603 25.9475 44.883 25.9475C45.1164 25.9475 45.3077 25.9148 45.457 25.8495C45.6064 25.7842 45.7277 25.7048 45.821 25.6115C45.9237 25.5182 45.9984 25.4388 46.045 25.3735C46.129 25.2802 46.1944 25.2242 46.241 25.2055C46.297 25.1775 46.381 25.1635 46.493 25.1635H47.949C48.0424 25.1635 48.117 25.1915 48.173 25.2475C48.2384 25.2942 48.2664 25.3642 48.257 25.4575C48.2477 25.6068 48.1684 25.7935 48.019 26.0175C47.879 26.2322 47.669 26.4468 47.389 26.6615C47.109 26.8668 46.759 27.0395 46.339 27.1795C45.9284 27.3195 45.4524 27.3895 44.911 27.3895ZM43.525 22.9235H46.269V22.8955C46.269 22.5595 46.213 22.2702 46.101 22.0275C45.9984 21.7755 45.8444 21.5795 45.639 21.4395C45.4337 21.2995 45.1864 21.2295 44.897 21.2295C44.6077 21.2295 44.3604 21.2995 44.155 21.4395C43.9497 21.5795 43.791 21.7755 43.679 22.0275C43.5764 22.2702 43.525 22.5595 43.525 22.8955V22.9235ZM53.0865 27.3895C52.4052 27.3895 51.8032 27.2635 51.2805 27.0115C50.7672 26.7595 50.3612 26.3955 50.0625 25.9195C49.7638 25.4342 49.6005 24.8555 49.5725 24.1835C49.5632 24.0342 49.5585 23.8475 49.5585 23.6235C49.5585 23.3902 49.5632 23.1988 49.5725 23.0495C49.6005 22.3682 49.7592 21.7895 50.0485 21.3135C50.3472 20.8282 50.7578 20.4595 51.2805 20.2075C51.8032 19.9555 52.4052 19.8295 53.0865 19.8295C53.7118 19.8295 54.2438 19.9182 54.6825 20.0955C55.1212 20.2635 55.4805 20.4782 55.7605 20.7395C56.0405 21.0008 56.2458 21.2762 56.3765 21.5655C56.5165 21.8455 56.5912 22.0928 56.6005 22.3075C56.6098 22.4008 56.5772 22.4848 56.5025 22.5595C56.4372 22.6248 56.3578 22.6575 56.2645 22.6575H54.7665C54.6732 22.6575 54.5985 22.6342 54.5425 22.5875C54.4958 22.5315 54.4492 22.4568 54.4025 22.3635C54.2718 22.0368 54.1038 21.8035 53.8985 21.6635C53.6932 21.5235 53.4365 21.4535 53.1285 21.4535C52.7085 21.4535 52.3772 21.5888 52.1345 21.8595C51.8918 22.1302 51.7612 22.5502 51.7425 23.1195C51.7332 23.4835 51.7332 23.8148 51.7425 24.1135C51.7705 24.6922 51.9012 25.1122 52.1345 25.3735C52.3772 25.6348 52.7085 25.7655 53.1285 25.7655C53.4552 25.7655 53.7165 25.6955 53.9125 25.5555C54.1085 25.4155 54.2718 25.1822 54.4025 24.8555C54.4398 24.7622 54.4865 24.6922 54.5425 24.6455C54.5985 24.5895 54.6732 24.5615 54.7665 24.5615H56.2645C56.3578 24.5615 56.4372 24.5988 56.5025 24.6735C56.5772 24.7388 56.6098 24.8182 56.6005 24.9115C56.5912 25.0702 56.5445 25.2568 56.4605 25.4715C56.3858 25.6862 56.2598 25.9055 56.0825 26.1295C55.9145 26.3535 55.6952 26.5635 55.4245 26.7595C55.1538 26.9462 54.8225 27.1002 54.4305 27.2215C54.0478 27.3335 53.5998 27.3895 53.0865 27.3895ZM61.4736 27.2495C60.8949 27.2495 60.4003 27.1562 59.9896 26.9695C59.5789 26.7735 59.2662 26.4748 59.0516 26.0735C58.8462 25.6722 58.7436 25.1682 58.7436 24.5615V21.6215H57.6516C57.5489 21.6215 57.4649 21.5888 57.3996 21.5235C57.3342 21.4582 57.3016 21.3742 57.3016 21.2715V20.3195C57.3016 20.2168 57.3342 20.1328 57.3996 20.0675C57.4649 20.0022 57.5489 19.9695 57.6516 19.9695H58.7436V17.6595C58.7436 17.5568 58.7762 17.4728 58.8416 17.4075C58.9162 17.3422 59.0002 17.3095 59.0936 17.3095H60.4656C60.5683 17.3095 60.6522 17.3422 60.7176 17.4075C60.7829 17.4728 60.8156 17.5568 60.8156 17.6595V19.9695H62.5656C62.6589 19.9695 62.7383 20.0022 62.8036 20.0675C62.8689 20.1328 62.9016 20.2168 62.9016 20.3195V21.2715C62.9016 21.3742 62.8689 21.4582 62.8036 21.5235C62.7383 21.5888 62.6589 21.6215 62.5656 21.6215H60.8156V24.3935C60.8156 24.7482 60.8763 25.0282 60.9976 25.2335C61.1283 25.4295 61.3523 25.5275 61.6696 25.5275H62.6916C62.7849 25.5275 62.8643 25.5602 62.9296 25.6255C62.9949 25.6908 63.0276 25.7702 63.0276 25.8635V26.8995C63.0276 27.0022 62.9949 27.0862 62.9296 27.1515C62.8643 27.2168 62.7849 27.2495 62.6916 27.2495H61.4736ZM67.581 27.3895C66.8063 27.3895 66.1576 27.2635 65.635 27.0115C65.1123 26.7502 64.711 26.3815 64.431 25.9055C64.1603 25.4295 64.011 24.8742 63.983 24.2395C63.9736 24.0528 63.969 23.8428 63.969 23.6095C63.969 23.3668 63.9736 23.1568 63.983 22.9795C64.011 22.3355 64.1696 21.7802 64.459 21.3135C64.7483 20.8375 65.1543 20.4735 65.677 20.2215C66.1996 19.9602 66.8343 19.8295 67.581 19.8295C68.3183 19.8295 68.9483 19.9602 69.471 20.2215C69.9936 20.4735 70.3996 20.8375 70.689 21.3135C70.9783 21.7802 71.137 22.3355 71.165 22.9795C71.1836 23.1568 71.193 23.3668 71.193 23.6095C71.193 23.8428 71.1836 24.0528 71.165 24.2395C71.137 24.8742 70.983 25.4295 70.703 25.9055C70.4323 26.3815 70.0356 26.7502 69.513 27.0115C68.9903 27.2635 68.3463 27.3895 67.581 27.3895ZM67.581 25.8495C68.0383 25.8495 68.3836 25.7095 68.617 25.4295C68.8503 25.1402 68.9763 24.7202 68.995 24.1695C69.0043 24.0295 69.009 23.8428 69.009 23.6095C69.009 23.3762 69.0043 23.1895 68.995 23.0495C68.9763 22.5082 68.8503 22.0928 68.617 21.8035C68.3836 21.5142 68.0383 21.3695 67.581 21.3695C67.1236 21.3695 66.7736 21.5142 66.531 21.8035C66.2976 22.0928 66.1716 22.5082 66.153 23.0495C66.1436 23.1895 66.139 23.3762 66.139 23.6095C66.139 23.8428 66.1436 24.0295 66.153 24.1695C66.1716 24.7202 66.2976 25.1402 66.531 25.4295C66.7736 25.7095 67.1236 25.8495 67.581 25.8495ZM72.9932 27.2495C72.8998 27.2495 72.8205 27.2168 72.7552 27.1515C72.6898 27.0862 72.6572 27.0022 72.6572 26.8995V20.3195C72.6572 20.2262 72.6898 20.1468 72.7552 20.0815C72.8205 20.0068 72.8998 19.9695 72.9932 19.9695H74.3652C74.4585 19.9695 74.5378 20.0068 74.6032 20.0815C74.6778 20.1468 74.7152 20.2262 74.7152 20.3195V20.8795C74.9485 20.5902 75.2332 20.3662 75.5692 20.2075C75.9145 20.0488 76.3112 19.9695 76.7592 19.9695H77.3612C77.4545 19.9695 77.5338 20.0022 77.5992 20.0675C77.6645 20.1328 77.6972 20.2168 77.6972 20.3195V21.5235C77.6972 21.6262 77.6645 21.7102 77.5992 21.7755C77.5338 21.8408 77.4545 21.8735 77.3612 21.8735H76.1292C75.7185 21.8735 75.3965 21.9902 75.1632 22.2235C74.9298 22.4475 74.8132 22.7695 74.8132 23.1895V26.8995C74.8132 27.0022 74.7805 27.0862 74.7152 27.1515C74.6498 27.2168 74.5658 27.2495 74.4632 27.2495H72.9932Z" fill="#F9F9F9"/>
</svg>
