<svg width="89" height="28" viewBox="0 0 89 28" fill="none" xmlns="http://www.w3.org/2000/svg">
<path d="M5.06061 10.64C4.18327 10.64 3.43194 10.4953 2.80661 10.206C2.19061 9.90733 1.70994 9.478 1.36461 8.918C1.02861 8.34867 0.846607 7.66267 0.818607 6.86C0.809273 6.45867 0.804607 6.02933 0.804607 5.572C0.804607 5.11467 0.809273 4.68067 0.818607 4.27C0.846607 3.486 1.02861 2.81867 1.36461 2.268C1.70994 1.71733 2.19527 1.29733 2.82061 1.008C3.45527 0.709333 4.20194 0.559999 5.06061 0.559999C5.75127 0.559999 6.35794 0.648666 6.88061 0.825999C7.40327 1.00333 7.84194 1.23667 8.19661 1.526C8.55127 1.806 8.82194 2.114 9.00861 2.45C9.19527 2.786 9.29327 3.108 9.30261 3.416C9.30261 3.5 9.27461 3.57467 9.21861 3.64C9.16261 3.696 9.08794 3.724 8.99461 3.724H7.25861C7.16527 3.724 7.09061 3.70533 7.03461 3.668C6.98794 3.63067 6.94594 3.57467 6.90861 3.5C6.84327 3.332 6.73594 3.164 6.58661 2.996C6.44661 2.81867 6.25527 2.66933 6.01261 2.548C5.76994 2.42667 5.45261 2.366 5.06061 2.366C4.47261 2.366 4.00594 2.52 3.66061 2.828C3.32461 3.136 3.14261 3.64 3.11461 4.34C3.08661 5.14267 3.08661 5.95933 3.11461 6.79C3.14261 7.518 3.32927 8.04067 3.67461 8.358C4.02927 8.67533 4.50061 8.834 5.08861 8.834C5.47127 8.834 5.81194 8.76867 6.11061 8.638C6.41861 8.498 6.66127 8.28333 6.83861 7.994C7.01594 7.70467 7.10461 7.336 7.10461 6.888V6.538H5.57861C5.48527 6.538 5.40594 6.50533 5.34061 6.44C5.27527 6.36533 5.24261 6.28133 5.24261 6.188V5.292C5.24261 5.18933 5.27527 5.10533 5.34061 5.04C5.40594 4.97467 5.48527 4.942 5.57861 4.942H9.00861C9.11127 4.942 9.19527 4.97467 9.26061 5.04C9.32594 5.10533 9.35861 5.18933 9.35861 5.292V6.818C9.35861 7.62067 9.18127 8.30667 8.82661 8.876C8.48127 9.44533 7.98194 9.884 7.32861 10.192C6.68461 10.4907 5.92861 10.64 5.06061 10.64ZM11.4161 10.5C11.3134 10.5 11.2294 10.4673 11.1641 10.402C11.0987 10.3367 11.0661 10.2527 11.0661 10.15V1.05C11.0661 0.947333 11.0987 0.863333 11.1641 0.798C11.2294 0.732666 11.3134 0.699999 11.4161 0.699999H17.7581C17.8607 0.699999 17.9447 0.732666 18.0101 0.798C18.0754 0.863333 18.1081 0.947333 18.1081 1.05V2.17C18.1081 2.26333 18.0754 2.34267 18.0101 2.408C17.9447 2.47333 17.8607 2.506 17.7581 2.506H13.2221V4.704H17.4501C17.5527 4.704 17.6367 4.73667 17.7021 4.802C17.7674 4.86733 17.8001 4.95133 17.8001 5.054V6.09C17.8001 6.18333 17.7674 6.26267 17.7021 6.328C17.6367 6.39333 17.5527 6.426 17.4501 6.426H13.2221V8.694H17.8701C17.9727 8.694 18.0567 8.72667 18.1221 8.792C18.1874 8.85733 18.2201 8.94133 18.2201 9.044V10.15C18.2201 10.2527 18.1874 10.3367 18.1221 10.402C18.0567 10.4673 17.9727 10.5 17.8701 10.5H11.4161ZM26.5023 10.64C25.6063 10.64 24.8549 10.5093 24.2483 10.248C23.6509 9.98667 23.1983 9.646 22.8903 9.226C22.5823 8.806 22.4189 8.358 22.4003 7.882C22.4003 7.80733 22.4283 7.742 22.4843 7.686C22.5403 7.62067 22.6103 7.588 22.6943 7.588H24.1923C24.3136 7.588 24.4069 7.616 24.4723 7.672C24.5376 7.71867 24.5983 7.77933 24.6543 7.854C24.7196 8.01267 24.8223 8.16667 24.9623 8.316C25.1116 8.46533 25.3123 8.59133 25.5643 8.694C25.8163 8.78733 26.1289 8.834 26.5023 8.834C27.1089 8.834 27.5616 8.736 27.8603 8.54C28.1683 8.344 28.3223 8.078 28.3223 7.742C28.3223 7.49933 28.2383 7.30333 28.0703 7.154C27.9116 7.00467 27.6549 6.86933 27.3003 6.748C26.9549 6.62667 26.4929 6.496 25.9143 6.356C25.2143 6.20667 24.6169 6.01533 24.1223 5.782C23.6369 5.53933 23.2683 5.23133 23.0163 4.858C22.7736 4.47533 22.6523 4.004 22.6523 3.444C22.6523 2.884 22.8063 2.38933 23.1143 1.96C23.4223 1.52133 23.8563 1.18067 24.4163 0.938C24.9763 0.686 25.6436 0.559999 26.4183 0.559999C27.0436 0.559999 27.5943 0.643999 28.0703 0.812C28.5556 0.98 28.9569 1.19933 29.2743 1.47C29.6009 1.74067 29.8483 2.03 30.0163 2.338C30.1843 2.646 30.2729 2.94467 30.2823 3.234C30.2823 3.30867 30.2543 3.37867 30.1983 3.444C30.1423 3.5 30.0723 3.528 29.9883 3.528H28.4203C28.3269 3.528 28.2429 3.50933 28.1683 3.472C28.0936 3.43467 28.0329 3.36933 27.9863 3.276C27.9303 3.03333 27.7623 2.82333 27.4823 2.646C27.2116 2.45933 26.8569 2.366 26.4183 2.366C25.9609 2.366 25.5969 2.45 25.3263 2.618C25.0649 2.786 24.9343 3.04267 24.9343 3.388C24.9343 3.612 24.9996 3.80333 25.1303 3.962C25.2703 4.11133 25.4989 4.24667 25.8163 4.368C26.1429 4.48 26.5723 4.606 27.1043 4.746C27.9256 4.914 28.5929 5.11467 29.1063 5.348C29.6196 5.58133 29.9976 5.88467 30.2403 6.258C30.4829 6.622 30.6043 7.084 30.6043 7.644C30.6043 8.26933 30.4269 8.806 30.0723 9.254C29.7269 9.702 29.2463 10.0473 28.6303 10.29C28.0236 10.5233 27.3143 10.64 26.5023 10.64ZM35.4531 10.5C34.8744 10.5 34.3797 10.4067 33.9691 10.22C33.5584 10.024 33.2457 9.72533 33.0311 9.324C32.8257 8.92267 32.7231 8.41867 32.7231 7.812V4.872H31.6311C31.5284 4.872 31.4444 4.83933 31.3791 4.774C31.3137 4.70867 31.2811 4.62467 31.2811 4.522V3.57C31.2811 3.46733 31.3137 3.38333 31.3791 3.318C31.4444 3.25267 31.5284 3.22 31.6311 3.22H32.7231V0.909999C32.7231 0.807333 32.7557 0.723333 32.8211 0.658C32.8957 0.592666 32.9797 0.559999 33.0731 0.559999H34.4451C34.5477 0.559999 34.6317 0.592666 34.6971 0.658C34.7624 0.723333 34.7951 0.807333 34.7951 0.909999V3.22H36.5451C36.6384 3.22 36.7177 3.25267 36.7831 3.318C36.8484 3.38333 36.8811 3.46733 36.8811 3.57V4.522C36.8811 4.62467 36.8484 4.70867 36.7831 4.774C36.7177 4.83933 36.6384 4.872 36.5451 4.872H34.7951V7.644C34.7951 7.99867 34.8557 8.27867 34.9771 8.484C35.1077 8.68 35.3317 8.778 35.6491 8.778H36.6711C36.7644 8.778 36.8437 8.81067 36.9091 8.876C36.9744 8.94133 37.0071 9.02067 37.0071 9.114V10.15C37.0071 10.2527 36.9744 10.3367 36.9091 10.402C36.8437 10.4673 36.7644 10.5 36.6711 10.5H35.4531ZM41.5605 10.64C40.7858 10.64 40.1371 10.514 39.6145 10.262C39.0918 10.0007 38.6905 9.632 38.4105 9.156C38.1398 8.68 37.9905 8.12467 37.9625 7.49C37.9531 7.30333 37.9485 7.09333 37.9485 6.86C37.9485 6.61733 37.9531 6.40733 37.9625 6.23C37.9905 5.586 38.1491 5.03067 38.4385 4.564C38.7278 4.088 39.1338 3.724 39.6565 3.472C40.1791 3.21067 40.8138 3.08 41.5605 3.08C42.2978 3.08 42.9278 3.21067 43.4505 3.472C43.9731 3.724 44.3791 4.088 44.6685 4.564C44.9578 5.03067 45.1165 5.586 45.1445 6.23C45.1631 6.40733 45.1725 6.61733 45.1725 6.86C45.1725 7.09333 45.1631 7.30333 45.1445 7.49C45.1165 8.12467 44.9625 8.68 44.6825 9.156C44.4118 9.632 44.0151 10.0007 43.4925 10.262C42.9698 10.514 42.3258 10.64 41.5605 10.64ZM41.5605 9.1C42.0178 9.1 42.3631 8.96 42.5965 8.68C42.8298 8.39067 42.9558 7.97067 42.9745 7.42C42.9838 7.28 42.9885 7.09333 42.9885 6.86C42.9885 6.62667 42.9838 6.44 42.9745 6.3C42.9558 5.75867 42.8298 5.34333 42.5965 5.054C42.3631 4.76467 42.0178 4.62 41.5605 4.62C41.1031 4.62 40.7531 4.76467 40.5105 5.054C40.2771 5.34333 40.1511 5.75867 40.1325 6.3C40.1231 6.44 40.1185 6.62667 40.1185 6.86C40.1185 7.09333 40.1231 7.28 40.1325 7.42C40.1511 7.97067 40.2771 8.39067 40.5105 8.68C40.7531 8.96 41.1031 9.1 41.5605 9.1ZM48.9392 10.5C48.7992 10.5 48.6919 10.4673 48.6172 10.402C48.5519 10.3273 48.4959 10.2433 48.4492 10.15L45.8172 3.654C45.7986 3.61667 45.7892 3.57467 45.7892 3.528C45.7892 3.444 45.8172 3.374 45.8732 3.318C45.9386 3.25267 46.0132 3.22 46.0972 3.22H47.4552C47.5766 3.22 47.6652 3.25267 47.7212 3.318C47.7866 3.38333 47.8286 3.444 47.8472 3.5L49.5692 8.12L51.2912 3.5C51.3192 3.444 51.3612 3.38333 51.4172 3.318C51.4826 3.25267 51.5712 3.22 51.6832 3.22H53.0412C53.1252 3.22 53.1952 3.25267 53.2512 3.318C53.3166 3.374 53.3492 3.444 53.3492 3.528C53.3492 3.57467 53.3446 3.61667 53.3352 3.654L50.6892 10.15C50.6519 10.2433 50.5959 10.3273 50.5212 10.402C50.4466 10.4673 50.3392 10.5 50.1992 10.5H48.9392ZM57.5136 10.64C56.4402 10.64 55.5862 10.3413 54.9516 9.744C54.3262 9.14667 53.9949 8.27867 53.9576 7.14C53.9576 7.06533 53.9576 6.96733 53.9576 6.846C53.9576 6.71533 53.9576 6.61267 53.9576 6.538C53.9949 5.81933 54.1582 5.20333 54.4476 4.69C54.7369 4.16733 55.1429 3.77067 55.6656 3.5C56.1882 3.22 56.7996 3.08 57.4996 3.08C58.2836 3.08 58.9369 3.24333 59.4596 3.57C59.9916 3.88733 60.3882 4.326 60.6496 4.886C60.9202 5.43667 61.0556 6.07133 61.0556 6.79V7.112C61.0556 7.20533 61.0182 7.28467 60.9436 7.35C60.8782 7.41533 60.7989 7.448 60.7056 7.448H56.1276C56.1276 7.45733 56.1276 7.476 56.1276 7.504C56.1276 7.52267 56.1276 7.54133 56.1276 7.56C56.1369 7.85867 56.1929 8.134 56.2956 8.386C56.4076 8.62867 56.5616 8.82467 56.7576 8.974C56.9629 9.12333 57.2056 9.198 57.4856 9.198C57.7189 9.198 57.9102 9.16533 58.0596 9.1C58.2089 9.03467 58.3302 8.95533 58.4236 8.862C58.5262 8.76867 58.6009 8.68933 58.6476 8.624C58.7316 8.53067 58.7969 8.47467 58.8436 8.456C58.8996 8.428 58.9836 8.414 59.0956 8.414H60.5516C60.6449 8.414 60.7196 8.442 60.7756 8.498C60.8409 8.54467 60.8689 8.61467 60.8596 8.708C60.8502 8.85733 60.7709 9.044 60.6216 9.268C60.4816 9.48267 60.2716 9.69733 59.9916 9.912C59.7116 10.1173 59.3616 10.29 58.9416 10.43C58.5309 10.57 58.0549 10.64 57.5136 10.64ZM56.1276 6.174H58.8716V6.146C58.8716 5.81 58.8156 5.52067 58.7036 5.278C58.6009 5.026 58.4469 4.83 58.2416 4.69C58.0362 4.55 57.7889 4.48 57.4996 4.48C57.2102 4.48 56.9629 4.55 56.7576 4.69C56.5522 4.83 56.3936 5.026 56.2816 5.278C56.1789 5.52067 56.1276 5.81 56.1276 6.146V6.174ZM67.8767 10.5C67.7741 10.5 67.6901 10.4673 67.6247 10.402C67.5594 10.3367 67.5267 10.2527 67.5267 10.15V2.646H64.9787C64.8854 2.646 64.8061 2.61333 64.7407 2.548C64.6754 2.48267 64.6427 2.40333 64.6427 2.31V1.05C64.6427 0.947333 64.6754 0.863333 64.7407 0.798C64.8061 0.732666 64.8854 0.699999 64.9787 0.699999H72.3147C72.4174 0.699999 72.5014 0.732666 72.5667 0.798C72.6321 0.863333 72.6647 0.947333 72.6647 1.05V2.31C72.6647 2.40333 72.6321 2.48267 72.5667 2.548C72.5014 2.61333 72.4174 2.646 72.3147 2.646H69.7807V10.15C69.7807 10.2527 69.7481 10.3367 69.6827 10.402C69.6174 10.4673 69.5334 10.5 69.4307 10.5H67.8767ZM75.9316 10.64C75.1569 10.64 74.5082 10.514 73.9856 10.262C73.4629 10.0007 73.0616 9.632 72.7816 9.156C72.5109 8.68 72.3616 8.12467 72.3336 7.49C72.3242 7.30333 72.3196 7.09333 72.3196 6.86C72.3196 6.61733 72.3242 6.40733 72.3336 6.23C72.3616 5.586 72.5202 5.03067 72.8096 4.564C73.0989 4.088 73.5049 3.724 74.0276 3.472C74.5502 3.21067 75.1849 3.08 75.9316 3.08C76.6689 3.08 77.2989 3.21067 77.8216 3.472C78.3442 3.724 78.7502 4.088 79.0396 4.564C79.3289 5.03067 79.4876 5.586 79.5156 6.23C79.5342 6.40733 79.5436 6.61733 79.5436 6.86C79.5436 7.09333 79.5342 7.30333 79.5156 7.49C79.4876 8.12467 79.3336 8.68 79.0536 9.156C78.7829 9.632 78.3862 10.0007 77.8636 10.262C77.3409 10.514 76.6969 10.64 75.9316 10.64ZM75.9316 9.1C76.3889 9.1 76.7342 8.96 76.9676 8.68C77.2009 8.39067 77.3269 7.97067 77.3456 7.42C77.3549 7.28 77.3596 7.09333 77.3596 6.86C77.3596 6.62667 77.3549 6.44 77.3456 6.3C77.3269 5.75867 77.2009 5.34333 76.9676 5.054C76.7342 4.76467 76.3889 4.62 75.9316 4.62C75.4742 4.62 75.1242 4.76467 74.8816 5.054C74.6482 5.34333 74.5222 5.75867 74.5036 6.3C74.4942 6.44 74.4896 6.62667 74.4896 6.86C74.4896 7.09333 74.4942 7.28 74.5036 7.42C74.5222 7.97067 74.6482 8.39067 74.8816 8.68C75.1242 8.96 75.4742 9.1 75.9316 9.1ZM81.3578 13.16C81.2551 13.16 81.1711 13.1273 81.1058 13.062C81.0404 12.9967 81.0078 12.9127 81.0078 12.81V3.57C81.0078 3.46733 81.0404 3.38333 81.1058 3.318C81.1711 3.25267 81.2551 3.22 81.3578 3.22H82.6878C82.7904 3.22 82.8744 3.25267 82.9398 3.318C83.0051 3.38333 83.0378 3.46733 83.0378 3.57V4.102C83.2618 3.80333 83.5511 3.56067 83.9058 3.374C84.2604 3.178 84.7038 3.08 85.2358 3.08C85.7211 3.08 86.1411 3.15933 86.4958 3.318C86.8598 3.46733 87.1631 3.68667 87.4058 3.976C87.6578 4.256 87.8491 4.59667 87.9798 4.998C88.1198 5.39933 88.1991 5.852 88.2178 6.356C88.2271 6.53333 88.2318 6.70133 88.2318 6.86C88.2318 7.01867 88.2271 7.19133 88.2178 7.378C88.2084 7.854 88.1338 8.29267 87.9938 8.694C87.8631 9.09533 87.6718 9.44067 87.4198 9.73C87.1678 10.0193 86.8598 10.2433 86.4958 10.402C86.1411 10.5607 85.7211 10.64 85.2358 10.64C84.7598 10.64 84.3444 10.556 83.9898 10.388C83.6444 10.2107 83.3598 9.97267 83.1358 9.674V12.81C83.1358 12.9127 83.1031 12.9967 83.0378 13.062C82.9724 13.1273 82.8931 13.16 82.7998 13.16H81.3578ZM84.6058 8.96C84.9604 8.96 85.2404 8.88533 85.4458 8.736C85.6511 8.57733 85.7958 8.372 85.8798 8.12C85.9731 7.868 86.0291 7.59267 86.0478 7.294C86.0664 7.00467 86.0664 6.71533 86.0478 6.426C86.0291 6.12733 85.9731 5.852 85.8798 5.6C85.7958 5.348 85.6511 5.14733 85.4458 4.998C85.2404 4.83933 84.9604 4.76 84.6058 4.76C84.2604 4.76 83.9804 4.83933 83.7658 4.998C83.5511 5.15667 83.3971 5.35733 83.3038 5.6C83.2104 5.84267 83.1544 6.104 83.1358 6.384C83.1264 6.552 83.1218 6.72467 83.1218 6.902C83.1218 7.07933 83.1264 7.25667 83.1358 7.434C83.1451 7.69533 83.2011 7.94267 83.3038 8.176C83.4158 8.4 83.5744 8.58667 83.7798 8.736C83.9944 8.88533 84.2698 8.96 84.6058 8.96ZM12.3184 27.5C12.2157 27.5 12.1317 27.4673 12.0664 27.402C12.0011 27.3367 11.9684 27.2527 11.9684 27.15V18.05C11.9684 17.9473 12.0011 17.8633 12.0664 17.798C12.1317 17.7327 12.2157 17.7 12.3184 17.7H16.1404C16.8964 17.7 17.5497 17.8167 18.1004 18.05C18.6604 18.2833 19.0944 18.638 19.4024 19.114C19.7197 19.5807 19.8784 20.164 19.8784 20.864C19.8784 21.5733 19.7197 22.1613 19.4024 22.628C19.0944 23.0853 18.6604 23.426 18.1004 23.65C17.5497 23.874 16.8964 23.986 16.1404 23.986H14.2644V27.15C14.2644 27.2527 14.2317 27.3367 14.1664 27.402C14.1011 27.4673 14.0171 27.5 13.9144 27.5H12.3184ZM14.2224 22.25H16.0704C16.5464 22.25 16.9151 22.1333 17.1764 21.9C17.4471 21.6667 17.5824 21.3167 17.5824 20.85C17.5824 20.4393 17.4611 20.1033 17.2184 19.842C16.9851 19.5807 16.6024 19.45 16.0704 19.45H14.2224V22.25ZM21.4883 27.5C21.395 27.5 21.3156 27.4673 21.2503 27.402C21.185 27.3367 21.1523 27.2527 21.1523 27.15V20.57C21.1523 20.4767 21.185 20.3973 21.2503 20.332C21.3156 20.2573 21.395 20.22 21.4883 20.22H22.8603C22.9536 20.22 23.033 20.2573 23.0983 20.332C23.173 20.3973 23.2103 20.4767 23.2103 20.57V21.13C23.4436 20.8407 23.7283 20.6167 24.0643 20.458C24.4096 20.2993 24.8063 20.22 25.2543 20.22H25.8563C25.9496 20.22 26.029 20.2527 26.0943 20.318C26.1596 20.3833 26.1923 20.4673 26.1923 20.57V21.774C26.1923 21.8767 26.1596 21.9607 26.0943 22.026C26.029 22.0913 25.9496 22.124 25.8563 22.124H24.6243C24.2136 22.124 23.8916 22.2407 23.6583 22.474C23.425 22.698 23.3083 23.02 23.3083 23.44V27.15C23.3083 27.2527 23.2756 27.3367 23.2103 27.402C23.145 27.4673 23.061 27.5 22.9583 27.5H21.4883ZM30.4862 27.64C29.7116 27.64 29.0629 27.514 28.5402 27.262C28.0176 27.0007 27.6162 26.632 27.3362 26.156C27.0656 25.68 26.9162 25.1247 26.8882 24.49C26.8789 24.3033 26.8742 24.0933 26.8742 23.86C26.8742 23.6173 26.8789 23.4073 26.8882 23.23C26.9162 22.586 27.0749 22.0307 27.3642 21.564C27.6536 21.088 28.0596 20.724 28.5822 20.472C29.1049 20.2107 29.7396 20.08 30.4862 20.08C31.2236 20.08 31.8536 20.2107 32.3762 20.472C32.8989 20.724 33.3049 21.088 33.5942 21.564C33.8836 22.0307 34.0422 22.586 34.0702 23.23C34.0889 23.4073 34.0982 23.6173 34.0982 23.86C34.0982 24.0933 34.0889 24.3033 34.0702 24.49C34.0422 25.1247 33.8882 25.68 33.6082 26.156C33.3376 26.632 32.9409 27.0007 32.4182 27.262C31.8956 27.514 31.2516 27.64 30.4862 27.64ZM30.4862 26.1C30.9436 26.1 31.2889 25.96 31.5222 25.68C31.7556 25.3907 31.8816 24.9707 31.9002 24.42C31.9096 24.28 31.9142 24.0933 31.9142 23.86C31.9142 23.6267 31.9096 23.44 31.9002 23.3C31.8816 22.7587 31.7556 22.3433 31.5222 22.054C31.2889 21.7647 30.9436 21.62 30.4862 21.62C30.0289 21.62 29.6789 21.7647 29.4362 22.054C29.2029 22.3433 29.0769 22.7587 29.0582 23.3C29.0489 23.44 29.0442 23.6267 29.0442 23.86C29.0442 24.0933 29.0489 24.28 29.0582 24.42C29.0769 24.9707 29.2029 25.3907 29.4362 25.68C29.6789 25.96 30.0289 26.1 30.4862 26.1ZM39.0214 27.5C38.4428 27.5 37.9481 27.4067 37.5374 27.22C37.1268 27.024 36.8141 26.7253 36.5994 26.324C36.3941 25.9227 36.2914 25.4187 36.2914 24.812V21.872H35.1994C35.0968 21.872 35.0128 21.8393 34.9474 21.774C34.8821 21.7087 34.8494 21.6247 34.8494 21.522V20.57C34.8494 20.4673 34.8821 20.3833 34.9474 20.318C35.0128 20.2527 35.0968 20.22 35.1994 20.22H36.2914V17.91C36.2914 17.8073 36.3241 17.7233 36.3894 17.658C36.4641 17.5927 36.5481 17.56 36.6414 17.56H38.0134C38.1161 17.56 38.2001 17.5927 38.2654 17.658C38.3308 17.7233 38.3634 17.8073 38.3634 17.91V20.22H40.1134C40.2068 20.22 40.2861 20.2527 40.3514 20.318C40.4168 20.3833 40.4494 20.4673 40.4494 20.57V21.522C40.4494 21.6247 40.4168 21.7087 40.3514 21.774C40.2861 21.8393 40.2068 21.872 40.1134 21.872H38.3634V24.644C38.3634 24.9987 38.4241 25.2787 38.5454 25.484C38.6761 25.68 38.9001 25.778 39.2174 25.778H40.2394C40.3328 25.778 40.4121 25.8107 40.4774 25.876C40.5428 25.9413 40.5754 26.0207 40.5754 26.114V27.15C40.5754 27.2527 40.5428 27.3367 40.4774 27.402C40.4121 27.4673 40.3328 27.5 40.2394 27.5H39.0214ZM45.0448 27.64C43.9715 27.64 43.1175 27.3413 42.4828 26.744C41.8575 26.1467 41.5262 25.2787 41.4888 24.14C41.4888 24.0653 41.4888 23.9673 41.4888 23.846C41.4888 23.7153 41.4888 23.6127 41.4888 23.538C41.5262 22.8193 41.6895 22.2033 41.9788 21.69C42.2682 21.1673 42.6742 20.7707 43.1968 20.5C43.7195 20.22 44.3308 20.08 45.0308 20.08C45.8148 20.08 46.4682 20.2433 46.9908 20.57C47.5228 20.8873 47.9195 21.326 48.1808 21.886C48.4515 22.4367 48.5868 23.0713 48.5868 23.79V24.112C48.5868 24.2053 48.5495 24.2847 48.4748 24.35C48.4095 24.4153 48.3302 24.448 48.2368 24.448H43.6588C43.6588 24.4573 43.6588 24.476 43.6588 24.504C43.6588 24.5227 43.6588 24.5413 43.6588 24.56C43.6682 24.8587 43.7242 25.134 43.8268 25.386C43.9388 25.6287 44.0928 25.8247 44.2888 25.974C44.4942 26.1233 44.7368 26.198 45.0168 26.198C45.2502 26.198 45.4415 26.1653 45.5908 26.1C45.7402 26.0347 45.8615 25.9553 45.9548 25.862C46.0575 25.7687 46.1322 25.6893 46.1788 25.624C46.2628 25.5307 46.3282 25.4747 46.3748 25.456C46.4308 25.428 46.5148 25.414 46.6268 25.414H48.0828C48.1762 25.414 48.2508 25.442 48.3068 25.498C48.3722 25.5447 48.4002 25.6147 48.3908 25.708C48.3815 25.8573 48.3022 26.044 48.1528 26.268C48.0128 26.4827 47.8028 26.6973 47.5228 26.912C47.2428 27.1173 46.8928 27.29 46.4728 27.43C46.0622 27.57 45.5862 27.64 45.0448 27.64ZM43.6588 23.174H46.4028V23.146C46.4028 22.81 46.3468 22.5207 46.2348 22.278C46.1322 22.026 45.9782 21.83 45.7728 21.69C45.5675 21.55 45.3202 21.48 45.0308 21.48C44.7415 21.48 44.4942 21.55 44.2888 21.69C44.0835 21.83 43.9248 22.026 43.8128 22.278C43.7102 22.5207 43.6588 22.81 43.6588 23.146V23.174ZM53.2203 27.64C52.5389 27.64 51.9369 27.514 51.4143 27.262C50.9009 27.01 50.4949 26.646 50.1963 26.17C49.8976 25.6847 49.7343 25.106 49.7063 24.434C49.6969 24.2847 49.6923 24.098 49.6923 23.874C49.6923 23.6407 49.6969 23.4493 49.7063 23.3C49.7343 22.6187 49.8929 22.04 50.1823 21.564C50.4809 21.0787 50.8916 20.71 51.4143 20.458C51.9369 20.206 52.5389 20.08 53.2203 20.08C53.8456 20.08 54.3776 20.1687 54.8163 20.346C55.2549 20.514 55.6143 20.7287 55.8943 20.99C56.1743 21.2513 56.3796 21.5267 56.5103 21.816C56.6503 22.096 56.7249 22.3433 56.7343 22.558C56.7436 22.6513 56.7109 22.7353 56.6363 22.81C56.5709 22.8753 56.4916 22.908 56.3983 22.908H54.9003C54.8069 22.908 54.7323 22.8847 54.6763 22.838C54.6296 22.782 54.5829 22.7073 54.5363 22.614C54.4056 22.2873 54.2376 22.054 54.0323 21.914C53.8269 21.774 53.5703 21.704 53.2623 21.704C52.8423 21.704 52.5109 21.8393 52.2683 22.11C52.0256 22.3807 51.8949 22.8007 51.8763 23.37C51.8669 23.734 51.8669 24.0653 51.8763 24.364C51.9043 24.9427 52.0349 25.3627 52.2683 25.624C52.5109 25.8853 52.8423 26.016 53.2623 26.016C53.5889 26.016 53.8503 25.946 54.0463 25.806C54.2423 25.666 54.4056 25.4327 54.5363 25.106C54.5736 25.0127 54.6203 24.9427 54.6763 24.896C54.7323 24.84 54.8069 24.812 54.9003 24.812H56.3983C56.4916 24.812 56.5709 24.8493 56.6363 24.924C56.7109 24.9893 56.7436 25.0687 56.7343 25.162C56.7249 25.3207 56.6783 25.5073 56.5943 25.722C56.5196 25.9367 56.3936 26.156 56.2163 26.38C56.0483 26.604 55.8289 26.814 55.5583 27.01C55.2876 27.1967 54.9563 27.3507 54.5643 27.472C54.1816 27.584 53.7336 27.64 53.2203 27.64ZM61.6074 27.5C61.0287 27.5 60.534 27.4067 60.1234 27.22C59.7127 27.024 59.4 26.7253 59.1854 26.324C58.98 25.9227 58.8774 25.4187 58.8774 24.812V21.872H57.7854C57.6827 21.872 57.5987 21.8393 57.5334 21.774C57.468 21.7087 57.4354 21.6247 57.4354 21.522V20.57C57.4354 20.4673 57.468 20.3833 57.5334 20.318C57.5987 20.2527 57.6827 20.22 57.7854 20.22H58.8774V17.91C58.8774 17.8073 58.91 17.7233 58.9754 17.658C59.05 17.5927 59.134 17.56 59.2274 17.56H60.5994C60.702 17.56 60.786 17.5927 60.8514 17.658C60.9167 17.7233 60.9494 17.8073 60.9494 17.91V20.22H62.6994C62.7927 20.22 62.872 20.2527 62.9374 20.318C63.0027 20.3833 63.0354 20.4673 63.0354 20.57V21.522C63.0354 21.6247 63.0027 21.7087 62.9374 21.774C62.872 21.8393 62.7927 21.872 62.6994 21.872H60.9494V24.644C60.9494 24.9987 61.01 25.2787 61.1314 25.484C61.262 25.68 61.486 25.778 61.8034 25.778H62.8254C62.9187 25.778 62.998 25.8107 63.0634 25.876C63.1287 25.9413 63.1614 26.0207 63.1614 26.114V27.15C63.1614 27.2527 63.1287 27.3367 63.0634 27.402C62.998 27.4673 62.9187 27.5 62.8254 27.5H61.6074ZM67.7148 27.64C66.9401 27.64 66.2914 27.514 65.7688 27.262C65.2461 27.0007 64.8448 26.632 64.5648 26.156C64.2941 25.68 64.1448 25.1247 64.1168 24.49C64.1074 24.3033 64.1028 24.0933 64.1028 23.86C64.1028 23.6173 64.1074 23.4073 64.1168 23.23C64.1448 22.586 64.3034 22.0307 64.5928 21.564C64.8821 21.088 65.2881 20.724 65.8108 20.472C66.3334 20.2107 66.9681 20.08 67.7148 20.08C68.4521 20.08 69.0821 20.2107 69.6048 20.472C70.1274 20.724 70.5334 21.088 70.8228 21.564C71.1121 22.0307 71.2708 22.586 71.2988 23.23C71.3174 23.4073 71.3268 23.6173 71.3268 23.86C71.3268 24.0933 71.3174 24.3033 71.2988 24.49C71.2708 25.1247 71.1168 25.68 70.8368 26.156C70.5661 26.632 70.1694 27.0007 69.6468 27.262C69.1241 27.514 68.4801 27.64 67.7148 27.64ZM67.7148 26.1C68.1721 26.1 68.5174 25.96 68.7508 25.68C68.9841 25.3907 69.1101 24.9707 69.1288 24.42C69.1381 24.28 69.1428 24.0933 69.1428 23.86C69.1428 23.6267 69.1381 23.44 69.1288 23.3C69.1101 22.7587 68.9841 22.3433 68.7508 22.054C68.5174 21.7647 68.1721 21.62 67.7148 21.62C67.2574 21.62 66.9074 21.7647 66.6648 22.054C66.4314 22.3433 66.3054 22.7587 66.2868 23.3C66.2774 23.44 66.2728 23.6267 66.2728 23.86C66.2728 24.0933 66.2774 24.28 66.2868 24.42C66.3054 24.9707 66.4314 25.3907 66.6648 25.68C66.9074 25.96 67.2574 26.1 67.7148 26.1ZM73.127 27.5C73.0336 27.5 72.9543 27.4673 72.889 27.402C72.8236 27.3367 72.791 27.2527 72.791 27.15V20.57C72.791 20.4767 72.8236 20.3973 72.889 20.332C72.9543 20.2573 73.0336 20.22 73.127 20.22H74.499C74.5923 20.22 74.6716 20.2573 74.737 20.332C74.8116 20.3973 74.849 20.4767 74.849 20.57V21.13C75.0823 20.8407 75.367 20.6167 75.703 20.458C76.0483 20.2993 76.445 20.22 76.893 20.22H77.495C77.5883 20.22 77.6676 20.2527 77.733 20.318C77.7983 20.3833 77.831 20.4673 77.831 20.57V21.774C77.831 21.8767 77.7983 21.9607 77.733 22.026C77.6676 22.0913 77.5883 22.124 77.495 22.124H76.263C75.8523 22.124 75.5303 22.2407 75.297 22.474C75.0636 22.698 74.947 23.02 74.947 23.44V27.15C74.947 27.2527 74.9143 27.3367 74.849 27.402C74.7836 27.4673 74.6996 27.5 74.597 27.5H73.127Z" fill="#1F71C0"/>
</svg>
