<svg width="19" height="18" viewBox="0 0 19 18" fill="none" xmlns="http://www.w3.org/2000/svg">
<path d="M6.28408 1.5H12.5841C14.9841 1.5 16.9341 3.45 16.9341 5.85V12.15C16.9341 13.3037 16.4758 14.4101 15.66 15.2259C14.8442 16.0417 13.7378 16.5 12.5841 16.5H6.28408C3.88408 16.5 1.93408 14.55 1.93408 12.15V5.85C1.93408 4.69631 2.39238 3.58987 3.20817 2.77409C4.02395 1.9583 5.13039 1.5 6.28408 1.5ZM6.13408 3C5.418 3 4.73124 3.28446 4.22489 3.79081C3.71855 4.29716 3.43408 4.98392 3.43408 5.7V12.3C3.43408 13.7925 4.64158 15 6.13408 15H12.7341C13.4502 15 14.1369 14.7155 14.6433 14.2092C15.1496 13.7028 15.4341 13.0161 15.4341 12.3V5.7C15.4341 4.2075 14.2266 3 12.7341 3H6.13408ZM13.3716 4.125C13.6202 4.125 13.8587 4.22377 14.0345 4.39959C14.2103 4.5754 14.3091 4.81386 14.3091 5.0625C14.3091 5.31114 14.2103 5.5496 14.0345 5.72541C13.8587 5.90123 13.6202 6 13.3716 6C13.1229 6 12.8845 5.90123 12.7087 5.72541C12.5329 5.5496 12.4341 5.31114 12.4341 5.0625C12.4341 4.81386 12.5329 4.5754 12.7087 4.39959C12.8845 4.22377 13.1229 4.125 13.3716 4.125ZM9.43408 5.25C10.4286 5.25 11.3825 5.64509 12.0857 6.34835C12.789 7.05161 13.1841 8.00544 13.1841 9C13.1841 9.99456 12.789 10.9484 12.0857 11.6517C11.3825 12.3549 10.4286 12.75 9.43408 12.75C8.43952 12.75 7.48569 12.3549 6.78243 11.6517C6.07917 10.9484 5.68408 9.99456 5.68408 9C5.68408 8.00544 6.07917 7.05161 6.78243 6.34835C7.48569 5.64509 8.43952 5.25 9.43408 5.25ZM9.43408 6.75C8.83735 6.75 8.26505 6.98705 7.84309 7.40901C7.42113 7.83097 7.18408 8.40326 7.18408 9C7.18408 9.59674 7.42113 10.169 7.84309 10.591C8.26505 11.0129 8.83735 11.25 9.43408 11.25C10.0308 11.25 10.6031 11.0129 11.0251 10.591C11.447 10.169 11.6841 9.59674 11.6841 9C11.6841 8.40326 11.447 7.83097 11.0251 7.40901C10.6031 6.98705 10.0308 6.75 9.43408 6.75Z" fill="#3E3C3C"/>
</svg>
