<svg width="159" height="14" viewBox="0 0 159 14" fill="none" xmlns="http://www.w3.org/2000/svg">
<path d="M5.02273 10.6561C4.1454 10.6561 3.39407 10.5114 2.76873 10.2221C2.15273 9.92345 1.67207 9.49411 1.32673 8.93411C0.990734 8.36478 0.808734 7.67878 0.780734 6.87611C0.771401 6.47478 0.766734 6.04545 0.766734 5.58811C0.766734 5.13078 0.771401 4.69678 0.780734 4.28611C0.808734 3.50211 0.990734 2.83478 1.32673 2.28411C1.67207 1.73345 2.1574 1.31345 2.78273 1.02411C3.4174 0.725446 4.16407 0.576113 5.02273 0.576113C5.7134 0.576113 6.32007 0.664779 6.84273 0.842113C7.3654 1.01945 7.80407 1.25278 8.15874 1.54211C8.5134 1.82211 8.78407 2.13011 8.97073 2.46611C9.1574 2.80211 9.2554 3.12411 9.26474 3.43211C9.26474 3.51611 9.23673 3.59078 9.18073 3.65611C9.12473 3.71211 9.05007 3.74011 8.95673 3.74011H7.22073C7.1274 3.74011 7.05273 3.72145 6.99673 3.68411C6.95007 3.64678 6.90807 3.59078 6.87073 3.51611C6.8054 3.34811 6.69807 3.18011 6.54873 3.01211C6.40873 2.83478 6.2174 2.68545 5.97473 2.56411C5.73207 2.44278 5.41473 2.38211 5.02273 2.38211C4.43473 2.38211 3.96807 2.53611 3.62273 2.84411C3.28673 3.15211 3.10473 3.65611 3.07673 4.35611C3.04873 5.15878 3.04873 5.97545 3.07673 6.80611C3.10473 7.53411 3.2914 8.05678 3.63673 8.37411C3.9914 8.69145 4.46273 8.85011 5.05073 8.85011C5.4334 8.85011 5.77407 8.78478 6.07273 8.65411C6.38073 8.51411 6.6234 8.29945 6.80073 8.01011C6.97807 7.72078 7.06674 7.35211 7.06674 6.90411V6.55411H5.54073C5.4474 6.55411 5.36807 6.52145 5.30273 6.45611C5.2374 6.38145 5.20473 6.29745 5.20473 6.20411V5.30811C5.20473 5.20545 5.2374 5.12145 5.30273 5.05611C5.36807 4.99078 5.4474 4.95811 5.54073 4.95811H8.97073C9.0734 4.95811 9.1574 4.99078 9.22273 5.05611C9.28807 5.12145 9.32074 5.20545 9.32074 5.30811V6.83411C9.32074 7.63678 9.1434 8.32278 8.78873 8.89211C8.4434 9.46145 7.94407 9.90011 7.29073 10.2081C6.64673 10.5068 5.89073 10.6561 5.02273 10.6561ZM11.3782 10.5161C11.2755 10.5161 11.1915 10.4834 11.1262 10.4181C11.0609 10.3528 11.0282 10.2688 11.0282 10.1661V1.06611C11.0282 0.963446 11.0609 0.879446 11.1262 0.814113C11.1915 0.748779 11.2755 0.716113 11.3782 0.716113H17.7202C17.8229 0.716113 17.9069 0.748779 17.9722 0.814113C18.0375 0.879446 18.0702 0.963446 18.0702 1.06611V2.18611C18.0702 2.27945 18.0375 2.35878 17.9722 2.42411C17.9069 2.48945 17.8229 2.52211 17.7202 2.52211H13.1842V4.72011H17.4122C17.5149 4.72011 17.5989 4.75278 17.6642 4.81811C17.7295 4.88345 17.7622 4.96745 17.7622 5.07011V6.10611C17.7622 6.19945 17.7295 6.27878 17.6642 6.34411C17.5989 6.40945 17.5149 6.44211 17.4122 6.44211H13.1842V8.71011H17.8322C17.9349 8.71011 18.0189 8.74278 18.0842 8.80811C18.1495 8.87345 18.1822 8.95745 18.1822 9.06011V10.1661C18.1822 10.2688 18.1495 10.3528 18.0842 10.4181C18.0189 10.4834 17.9349 10.5161 17.8322 10.5161H11.3782ZM26.4644 10.6561C25.5684 10.6561 24.8171 10.5254 24.2104 10.2641C23.6131 10.0028 23.1604 9.66211 22.8524 9.24211C22.5444 8.82211 22.3811 8.37411 22.3624 7.89811C22.3624 7.82345 22.3904 7.75811 22.4464 7.70211C22.5024 7.63678 22.5724 7.60411 22.6564 7.60411H24.1544C24.2757 7.60411 24.3691 7.63211 24.4344 7.68811C24.4997 7.73478 24.5604 7.79545 24.6164 7.87011C24.6817 8.02878 24.7844 8.18278 24.9244 8.33211C25.0737 8.48145 25.2744 8.60745 25.5264 8.71011C25.7784 8.80345 26.0911 8.85011 26.4644 8.85011C27.0711 8.85011 27.5237 8.75211 27.8224 8.55611C28.1304 8.36011 28.2844 8.09411 28.2844 7.75811C28.2844 7.51545 28.2004 7.31945 28.0324 7.17011C27.8737 7.02078 27.6171 6.88545 27.2624 6.76411C26.9171 6.64278 26.4551 6.51211 25.8764 6.37211C25.1764 6.22278 24.5791 6.03145 24.0844 5.79811C23.5991 5.55545 23.2304 5.24745 22.9784 4.87411C22.7357 4.49145 22.6144 4.02011 22.6144 3.46011C22.6144 2.90011 22.7684 2.40545 23.0764 1.97611C23.3844 1.53745 23.8184 1.19678 24.3784 0.954113C24.9384 0.702113 25.6057 0.576113 26.3804 0.576113C27.0057 0.576113 27.5564 0.660113 28.0324 0.828113C28.5177 0.996113 28.9191 1.21545 29.2364 1.48611C29.5631 1.75678 29.8104 2.04611 29.9784 2.35411C30.1464 2.66211 30.2351 2.96078 30.2444 3.25011C30.2444 3.32478 30.2164 3.39478 30.1604 3.46011C30.1044 3.51611 30.0344 3.54411 29.9504 3.54411H28.3824C28.2891 3.54411 28.2051 3.52545 28.1304 3.48811C28.0557 3.45078 27.9951 3.38545 27.9484 3.29211C27.8924 3.04945 27.7244 2.83945 27.4444 2.66211C27.1737 2.47545 26.8191 2.38211 26.3804 2.38211C25.9231 2.38211 25.5591 2.46611 25.2884 2.63411C25.0271 2.80211 24.8964 3.05878 24.8964 3.40411C24.8964 3.62811 24.9617 3.81945 25.0924 3.97811C25.2324 4.12745 25.4611 4.26278 25.7784 4.38411C26.1051 4.49611 26.5344 4.62211 27.0664 4.76211C27.8877 4.93011 28.5551 5.13078 29.0684 5.36411C29.5817 5.59745 29.9597 5.90078 30.2024 6.27411C30.4451 6.63811 30.5664 7.10011 30.5664 7.66011C30.5664 8.28545 30.3891 8.82211 30.0344 9.27011C29.6891 9.71811 29.2084 10.0634 28.5924 10.3061C27.9857 10.5394 27.2764 10.6561 26.4644 10.6561ZM35.4152 10.5161C34.8365 10.5161 34.3419 10.4228 33.9312 10.2361C33.5205 10.0401 33.2079 9.74145 32.9932 9.34011C32.7879 8.93878 32.6852 8.43478 32.6852 7.82811V4.88811H31.5932C31.4905 4.88811 31.4065 4.85545 31.3412 4.79011C31.2759 4.72478 31.2432 4.64078 31.2432 4.53811V3.58611C31.2432 3.48345 31.2759 3.39945 31.3412 3.33411C31.4065 3.26878 31.4905 3.23611 31.5932 3.23611H32.6852V0.926112C32.6852 0.823446 32.7179 0.739446 32.7832 0.674113C32.8579 0.60878 32.9419 0.576113 33.0352 0.576113H34.4072C34.5099 0.576113 34.5939 0.60878 34.6592 0.674113C34.7245 0.739446 34.7572 0.823446 34.7572 0.926112V3.23611H36.5072C36.6005 3.23611 36.6799 3.26878 36.7452 3.33411C36.8105 3.39945 36.8432 3.48345 36.8432 3.58611V4.53811C36.8432 4.64078 36.8105 4.72478 36.7452 4.79011C36.6799 4.85545 36.6005 4.88811 36.5072 4.88811H34.7572V7.66011C34.7572 8.01478 34.8179 8.29478 34.9392 8.50011C35.0699 8.69611 35.2939 8.79411 35.6112 8.79411H36.6332C36.7265 8.79411 36.8059 8.82678 36.8712 8.89211C36.9365 8.95745 36.9692 9.03678 36.9692 9.13011V10.1661C36.9692 10.2688 36.9365 10.3528 36.8712 10.4181C36.8059 10.4834 36.7265 10.5161 36.6332 10.5161H35.4152ZM41.5226 10.6561C40.7479 10.6561 40.0993 10.5301 39.5766 10.2781C39.0539 10.0168 38.6526 9.64811 38.3726 9.17211C38.1019 8.69611 37.9526 8.14078 37.9246 7.50611C37.9153 7.31945 37.9106 7.10945 37.9106 6.87611C37.9106 6.63345 37.9153 6.42345 37.9246 6.24611C37.9526 5.60211 38.1113 5.04678 38.4006 4.58011C38.6899 4.10411 39.0959 3.74011 39.6186 3.48811C40.1413 3.22678 40.7759 3.09611 41.5226 3.09611C42.2599 3.09611 42.8899 3.22678 43.4126 3.48811C43.9353 3.74011 44.3413 4.10411 44.6306 4.58011C44.9199 5.04678 45.0786 5.60211 45.1066 6.24611C45.1253 6.42345 45.1346 6.63345 45.1346 6.87611C45.1346 7.10945 45.1253 7.31945 45.1066 7.50611C45.0786 8.14078 44.9246 8.69611 44.6446 9.17211C44.3739 9.64811 43.9773 10.0168 43.4546 10.2781C42.9319 10.5301 42.2879 10.6561 41.5226 10.6561ZM41.5226 9.11611C41.9799 9.11611 42.3253 8.97611 42.5586 8.69611C42.7919 8.40678 42.9179 7.98678 42.9366 7.43611C42.9459 7.29611 42.9506 7.10945 42.9506 6.87611C42.9506 6.64278 42.9459 6.45611 42.9366 6.31611C42.9179 5.77478 42.7919 5.35945 42.5586 5.07011C42.3253 4.78078 41.9799 4.63611 41.5226 4.63611C41.0653 4.63611 40.7153 4.78078 40.4726 5.07011C40.2393 5.35945 40.1133 5.77478 40.0946 6.31611C40.0853 6.45611 40.0806 6.64278 40.0806 6.87611C40.0806 7.10945 40.0853 7.29611 40.0946 7.43611C40.1133 7.98678 40.2393 8.40678 40.4726 8.69611C40.7153 8.97611 41.0653 9.11611 41.5226 9.11611ZM48.9014 10.5161C48.7614 10.5161 48.654 10.4834 48.5794 10.4181C48.514 10.3434 48.458 10.2594 48.4114 10.1661L45.7794 3.67011C45.7607 3.63278 45.7514 3.59078 45.7514 3.54411C45.7514 3.46011 45.7794 3.39011 45.8354 3.33411C45.9007 3.26878 45.9754 3.23611 46.0594 3.23611H47.4174C47.5387 3.23611 47.6274 3.26878 47.6834 3.33411C47.7487 3.39945 47.7907 3.46011 47.8094 3.51611L49.5314 8.13611L51.2534 3.51611C51.2814 3.46011 51.3234 3.39945 51.3794 3.33411C51.4447 3.26878 51.5334 3.23611 51.6454 3.23611H53.0034C53.0874 3.23611 53.1574 3.26878 53.2134 3.33411C53.2787 3.39011 53.3114 3.46011 53.3114 3.54411C53.3114 3.59078 53.3067 3.63278 53.2974 3.67011L50.6514 10.1661C50.614 10.2594 50.558 10.3434 50.4834 10.4181C50.4087 10.4834 50.3014 10.5161 50.1614 10.5161H48.9014ZM57.4757 10.6561C56.4024 10.6561 55.5484 10.3574 54.9137 9.76011C54.2884 9.16278 53.957 8.29478 53.9197 7.15611C53.9197 7.08145 53.9197 6.98345 53.9197 6.86211C53.9197 6.73145 53.9197 6.62878 53.9197 6.55411C53.957 5.83545 54.1204 5.21945 54.4097 4.70611C54.699 4.18345 55.105 3.78678 55.6277 3.51611C56.1504 3.23611 56.7617 3.09611 57.4617 3.09611C58.2457 3.09611 58.899 3.25945 59.4217 3.58611C59.9537 3.90345 60.3504 4.34211 60.6117 4.90211C60.8824 5.45278 61.0177 6.08745 61.0177 6.80611V7.12811C61.0177 7.22145 60.9804 7.30078 60.9057 7.36611C60.8404 7.43145 60.761 7.46411 60.6677 7.46411H56.0897C56.0897 7.47345 56.0897 7.49211 56.0897 7.52011C56.0897 7.53878 56.0897 7.55745 56.0897 7.57611C56.099 7.87478 56.155 8.15011 56.2577 8.40211C56.3697 8.64478 56.5237 8.84078 56.7197 8.99011C56.925 9.13945 57.1677 9.21411 57.4477 9.21411C57.681 9.21411 57.8724 9.18145 58.0217 9.11611C58.171 9.05078 58.2924 8.97145 58.3857 8.87811C58.4884 8.78478 58.563 8.70545 58.6097 8.64011C58.6937 8.54678 58.759 8.49078 58.8057 8.47211C58.8617 8.44411 58.9457 8.43011 59.0577 8.43011H60.5137C60.607 8.43011 60.6817 8.45811 60.7377 8.51411C60.803 8.56078 60.831 8.63078 60.8217 8.72411C60.8124 8.87345 60.733 9.06011 60.5837 9.28411C60.4437 9.49878 60.2337 9.71345 59.9537 9.92811C59.6737 10.1334 59.3237 10.3061 58.9037 10.4461C58.493 10.5861 58.017 10.6561 57.4757 10.6561ZM56.0897 6.19011H58.8337V6.16211C58.8337 5.82611 58.7777 5.53678 58.6657 5.29411C58.563 5.04211 58.409 4.84611 58.2037 4.70611C57.9984 4.56611 57.751 4.49611 57.4617 4.49611C57.1724 4.49611 56.925 4.56611 56.7197 4.70611C56.5144 4.84611 56.3557 5.04211 56.2437 5.29411C56.141 5.53678 56.0897 5.82611 56.0897 6.16211V6.19011ZM67.8389 10.5161C67.7362 10.5161 67.6522 10.4834 67.5869 10.4181C67.5215 10.3528 67.4889 10.2688 67.4889 10.1661V2.66211H64.9409C64.8475 2.66211 64.7682 2.62945 64.7029 2.56411C64.6375 2.49878 64.6049 2.41945 64.6049 2.32611V1.06611C64.6049 0.963446 64.6375 0.879446 64.7029 0.814113C64.7682 0.748779 64.8475 0.716113 64.9409 0.716113H72.2769C72.3795 0.716113 72.4635 0.748779 72.5289 0.814113C72.5942 0.879446 72.6269 0.963446 72.6269 1.06611V2.32611C72.6269 2.41945 72.5942 2.49878 72.5289 2.56411C72.4635 2.62945 72.3795 2.66211 72.2769 2.66211H69.7429V10.1661C69.7429 10.2688 69.7102 10.3528 69.6449 10.4181C69.5795 10.4834 69.4955 10.5161 69.3929 10.5161H67.8389ZM75.8937 10.6561C75.119 10.6561 74.4704 10.5301 73.9477 10.2781C73.425 10.0168 73.0237 9.64811 72.7437 9.17211C72.473 8.69611 72.3237 8.14078 72.2957 7.50611C72.2864 7.31945 72.2817 7.10945 72.2817 6.87611C72.2817 6.63345 72.2864 6.42345 72.2957 6.24611C72.3237 5.60211 72.4824 5.04678 72.7717 4.58011C73.061 4.10411 73.467 3.74011 73.9897 3.48811C74.5124 3.22678 75.147 3.09611 75.8937 3.09611C76.631 3.09611 77.261 3.22678 77.7837 3.48811C78.3064 3.74011 78.7124 4.10411 79.0017 4.58011C79.291 5.04678 79.4497 5.60211 79.4777 6.24611C79.4964 6.42345 79.5057 6.63345 79.5057 6.87611C79.5057 7.10945 79.4964 7.31945 79.4777 7.50611C79.4497 8.14078 79.2957 8.69611 79.0157 9.17211C78.745 9.64811 78.3484 10.0168 77.8257 10.2781C77.303 10.5301 76.659 10.6561 75.8937 10.6561ZM75.8937 9.11611C76.351 9.11611 76.6964 8.97611 76.9297 8.69611C77.163 8.40678 77.289 7.98678 77.3077 7.43611C77.317 7.29611 77.3217 7.10945 77.3217 6.87611C77.3217 6.64278 77.317 6.45611 77.3077 6.31611C77.289 5.77478 77.163 5.35945 76.9297 5.07011C76.6964 4.78078 76.351 4.63611 75.8937 4.63611C75.4364 4.63611 75.0864 4.78078 74.8437 5.07011C74.6104 5.35945 74.4844 5.77478 74.4657 6.31611C74.4564 6.45611 74.4517 6.64278 74.4517 6.87611C74.4517 7.10945 74.4564 7.29611 74.4657 7.43611C74.4844 7.98678 74.6104 8.40678 74.8437 8.69611C75.0864 8.97611 75.4364 9.11611 75.8937 9.11611ZM81.3199 13.1761C81.2172 13.1761 81.1332 13.1434 81.0679 13.0781C81.0026 13.0128 80.9699 12.9288 80.9699 12.8261V3.58611C80.9699 3.48345 81.0026 3.39945 81.0679 3.33411C81.1332 3.26878 81.2172 3.23611 81.3199 3.23611H82.6499C82.7526 3.23611 82.8366 3.26878 82.9019 3.33411C82.9672 3.39945 82.9999 3.48345 82.9999 3.58611V4.11811C83.2239 3.81945 83.5132 3.57678 83.8679 3.39011C84.2226 3.19411 84.6659 3.09611 85.1979 3.09611C85.6832 3.09611 86.1032 3.17545 86.4579 3.33411C86.8219 3.48345 87.1252 3.70278 87.3679 3.99211C87.6199 4.27211 87.8112 4.61278 87.9419 5.01411C88.0819 5.41545 88.1612 5.86811 88.1799 6.37211C88.1892 6.54945 88.1939 6.71745 88.1939 6.87611C88.1939 7.03478 88.1892 7.20745 88.1799 7.39411C88.1706 7.87011 88.0959 8.30878 87.9559 8.71011C87.8252 9.11145 87.6339 9.45678 87.3819 9.74611C87.1299 10.0354 86.8219 10.2594 86.4579 10.4181C86.1032 10.5768 85.6832 10.6561 85.1979 10.6561C84.7219 10.6561 84.3066 10.5721 83.9519 10.4041C83.6066 10.2268 83.3219 9.98878 83.0979 9.69011V12.8261C83.0979 12.9288 83.0652 13.0128 82.9999 13.0781C82.9346 13.1434 82.8552 13.1761 82.7619 13.1761H81.3199ZM84.5679 8.97611C84.9226 8.97611 85.2026 8.90145 85.4079 8.75211C85.6132 8.59345 85.7579 8.38811 85.8419 8.13611C85.9352 7.88411 85.9912 7.60878 86.0099 7.31011C86.0286 7.02078 86.0286 6.73145 86.0099 6.44211C85.9912 6.14345 85.9352 5.86811 85.8419 5.61611C85.7579 5.36411 85.6132 5.16345 85.4079 5.01411C85.2026 4.85545 84.9226 4.77611 84.5679 4.77611C84.2226 4.77611 83.9426 4.85545 83.7279 5.01411C83.5132 5.17278 83.3592 5.37345 83.2659 5.61611C83.1726 5.85878 83.1166 6.12011 83.0979 6.40011C83.0886 6.56811 83.0839 6.74078 83.0839 6.91811C83.0839 7.09545 83.0886 7.27278 83.0979 7.45011C83.1072 7.71145 83.1632 7.95878 83.2659 8.19211C83.3779 8.41611 83.5366 8.60278 83.7419 8.75211C83.9566 8.90145 84.2319 8.97611 84.5679 8.97611ZM93.2727 10.5161C93.1701 10.5161 93.0861 10.4834 93.0207 10.4181C92.9554 10.3528 92.9227 10.2688 92.9227 10.1661V1.06611C92.9227 0.963446 92.9554 0.879446 93.0207 0.814113C93.0861 0.748779 93.1701 0.716113 93.2727 0.716113H97.0947C97.8507 0.716113 98.5041 0.832779 99.0547 1.06611C99.6147 1.29945 100.049 1.65411 100.357 2.13011C100.674 2.59678 100.833 3.18011 100.833 3.88011C100.833 4.58945 100.674 5.17745 100.357 5.64411C100.049 6.10145 99.6147 6.44211 99.0547 6.66611C98.5041 6.89011 97.8507 7.00211 97.0947 7.00211H95.2187V10.1661C95.2187 10.2688 95.1861 10.3528 95.1207 10.4181C95.0554 10.4834 94.9714 10.5161 94.8687 10.5161H93.2727ZM95.1767 5.26611H97.0247C97.5007 5.26611 97.8694 5.14945 98.1307 4.91611C98.4014 4.68278 98.5367 4.33278 98.5367 3.86611C98.5367 3.45545 98.4154 3.11945 98.1727 2.85811C97.9394 2.59678 97.5567 2.46611 97.0247 2.46611H95.1767V5.26611ZM102.443 10.5161C102.349 10.5161 102.27 10.4834 102.205 10.4181C102.139 10.3528 102.107 10.2688 102.107 10.1661V3.58611C102.107 3.49278 102.139 3.41345 102.205 3.34811C102.27 3.27345 102.349 3.23611 102.443 3.23611H103.815C103.908 3.23611 103.987 3.27345 104.053 3.34811C104.127 3.41345 104.165 3.49278 104.165 3.58611V4.14611C104.398 3.85678 104.683 3.63278 105.019 3.47411C105.364 3.31545 105.761 3.23611 106.209 3.23611H106.811C106.904 3.23611 106.983 3.26878 107.049 3.33411C107.114 3.39945 107.147 3.48345 107.147 3.58611V4.79011C107.147 4.89278 107.114 4.97678 107.049 5.04211C106.983 5.10745 106.904 5.14011 106.811 5.14011H105.579C105.168 5.14011 104.846 5.25678 104.613 5.49011C104.379 5.71411 104.263 6.03611 104.263 6.45611V10.1661C104.263 10.2688 104.23 10.3528 104.165 10.4181C104.099 10.4834 104.015 10.5161 103.913 10.5161H102.443ZM111.441 10.6561C110.666 10.6561 110.017 10.5301 109.495 10.2781C108.972 10.0168 108.571 9.64811 108.291 9.17211C108.02 8.69611 107.871 8.14078 107.843 7.50611C107.833 7.31945 107.829 7.10945 107.829 6.87611C107.829 6.63345 107.833 6.42345 107.843 6.24611C107.871 5.60211 108.029 5.04678 108.319 4.58011C108.608 4.10411 109.014 3.74011 109.537 3.48811C110.059 3.22678 110.694 3.09611 111.441 3.09611C112.178 3.09611 112.808 3.22678 113.331 3.48811C113.853 3.74011 114.259 4.10411 114.549 4.58011C114.838 5.04678 114.997 5.60211 115.025 6.24611C115.043 6.42345 115.053 6.63345 115.053 6.87611C115.053 7.10945 115.043 7.31945 115.025 7.50611C114.997 8.14078 114.843 8.69611 114.563 9.17211C114.292 9.64811 113.895 10.0168 113.373 10.2781C112.85 10.5301 112.206 10.6561 111.441 10.6561ZM111.441 9.11611C111.898 9.11611 112.243 8.97611 112.477 8.69611C112.71 8.40678 112.836 7.98678 112.855 7.43611C112.864 7.29611 112.869 7.10945 112.869 6.87611C112.869 6.64278 112.864 6.45611 112.855 6.31611C112.836 5.77478 112.71 5.35945 112.477 5.07011C112.243 4.78078 111.898 4.63611 111.441 4.63611C110.983 4.63611 110.633 4.78078 110.391 5.07011C110.157 5.35945 110.031 5.77478 110.013 6.31611C110.003 6.45611 109.999 6.64278 109.999 6.87611C109.999 7.10945 110.003 7.29611 110.013 7.43611C110.031 7.98678 110.157 8.40678 110.391 8.69611C110.633 8.97611 110.983 9.11611 111.441 9.11611ZM119.976 10.5161C119.397 10.5161 118.902 10.4228 118.492 10.2361C118.081 10.0401 117.768 9.74145 117.554 9.34011C117.348 8.93878 117.246 8.43478 117.246 7.82811V4.88811H116.154C116.051 4.88811 115.967 4.85545 115.902 4.79011C115.836 4.72478 115.804 4.64078 115.804 4.53811V3.58611C115.804 3.48345 115.836 3.39945 115.902 3.33411C115.967 3.26878 116.051 3.23611 116.154 3.23611H117.246V0.926112C117.246 0.823446 117.278 0.739446 117.344 0.674113C117.418 0.60878 117.502 0.576113 117.596 0.576113H118.968C119.07 0.576113 119.154 0.60878 119.22 0.674113C119.285 0.739446 119.318 0.823446 119.318 0.926112V3.23611H121.068C121.161 3.23611 121.24 3.26878 121.306 3.33411C121.371 3.39945 121.404 3.48345 121.404 3.58611V4.53811C121.404 4.64078 121.371 4.72478 121.306 4.79011C121.24 4.85545 121.161 4.88811 121.068 4.88811H119.318V7.66011C119.318 8.01478 119.378 8.29478 119.5 8.50011C119.63 8.69611 119.854 8.79411 120.172 8.79411H121.194C121.287 8.79411 121.366 8.82678 121.432 8.89211C121.497 8.95745 121.53 9.03678 121.53 9.13011V10.1661C121.53 10.2688 121.497 10.3528 121.432 10.4181C121.366 10.4834 121.287 10.5161 121.194 10.5161H119.976ZM125.999 10.6561C124.926 10.6561 124.072 10.3574 123.437 9.76011C122.812 9.16278 122.48 8.29478 122.443 7.15611C122.443 7.08145 122.443 6.98345 122.443 6.86211C122.443 6.73145 122.443 6.62878 122.443 6.55411C122.48 5.83545 122.644 5.21945 122.933 4.70611C123.222 4.18345 123.628 3.78678 124.151 3.51611C124.674 3.23611 125.285 3.09611 125.985 3.09611C126.769 3.09611 127.422 3.25945 127.945 3.58611C128.477 3.90345 128.874 4.34211 129.135 4.90211C129.406 5.45278 129.541 6.08745 129.541 6.80611V7.12811C129.541 7.22145 129.504 7.30078 129.429 7.36611C129.364 7.43145 129.284 7.46411 129.191 7.46411H124.613C124.613 7.47345 124.613 7.49211 124.613 7.52011C124.613 7.53878 124.613 7.55745 124.613 7.57611C124.622 7.87478 124.678 8.15011 124.781 8.40211C124.893 8.64478 125.047 8.84078 125.243 8.99011C125.448 9.13945 125.691 9.21411 125.971 9.21411C126.204 9.21411 126.396 9.18145 126.545 9.11611C126.694 9.05078 126.816 8.97145 126.909 8.87811C127.012 8.78478 127.086 8.70545 127.133 8.64011C127.217 8.54678 127.282 8.49078 127.329 8.47211C127.385 8.44411 127.469 8.43011 127.581 8.43011H129.037C129.13 8.43011 129.205 8.45811 129.261 8.51411C129.326 8.56078 129.354 8.63078 129.345 8.72411C129.336 8.87345 129.256 9.06011 129.107 9.28411C128.967 9.49878 128.757 9.71345 128.477 9.92811C128.197 10.1334 127.847 10.3061 127.427 10.4461C127.016 10.5861 126.54 10.6561 125.999 10.6561ZM124.613 6.19011H127.357V6.16211C127.357 5.82611 127.301 5.53678 127.189 5.29411C127.086 5.04211 126.932 4.84611 126.727 4.70611C126.522 4.56611 126.274 4.49611 125.985 4.49611C125.696 4.49611 125.448 4.56611 125.243 4.70611C125.038 4.84611 124.879 5.04211 124.767 5.29411C124.664 5.53678 124.613 5.82611 124.613 6.16211V6.19011ZM134.175 10.6561C133.493 10.6561 132.891 10.5301 132.369 10.2781C131.855 10.0261 131.449 9.66211 131.151 9.18611C130.852 8.70078 130.689 8.12211 130.661 7.45011C130.651 7.30078 130.647 7.11411 130.647 6.89011C130.647 6.65678 130.651 6.46545 130.661 6.31611C130.689 5.63478 130.847 5.05611 131.137 4.58011C131.435 4.09478 131.846 3.72611 132.369 3.47411C132.891 3.22211 133.493 3.09611 134.175 3.09611C134.8 3.09611 135.332 3.18478 135.771 3.36211C136.209 3.53011 136.569 3.74478 136.849 4.00611C137.129 4.26745 137.334 4.54278 137.465 4.83211C137.605 5.11211 137.679 5.35945 137.689 5.57411C137.698 5.66745 137.665 5.75145 137.591 5.82611C137.525 5.89145 137.446 5.92411 137.353 5.92411H135.855C135.761 5.92411 135.687 5.90078 135.631 5.85411C135.584 5.79811 135.537 5.72345 135.491 5.63011C135.36 5.30345 135.192 5.07011 134.987 4.93011C134.781 4.79011 134.525 4.72011 134.217 4.72011C133.797 4.72011 133.465 4.85545 133.223 5.12611C132.98 5.39678 132.849 5.81678 132.831 6.38611C132.821 6.75011 132.821 7.08145 132.831 7.38011C132.859 7.95878 132.989 8.37878 133.223 8.64011C133.465 8.90145 133.797 9.03211 134.217 9.03211C134.543 9.03211 134.805 8.96211 135.001 8.82211C135.197 8.68211 135.36 8.44878 135.491 8.12211C135.528 8.02878 135.575 7.95878 135.631 7.91211C135.687 7.85611 135.761 7.82811 135.855 7.82811H137.353C137.446 7.82811 137.525 7.86545 137.591 7.94011C137.665 8.00545 137.698 8.08478 137.689 8.17811C137.679 8.33678 137.633 8.52345 137.549 8.73811C137.474 8.95278 137.348 9.17211 137.171 9.39611C137.003 9.62011 136.783 9.83011 136.513 10.0261C136.242 10.2128 135.911 10.3668 135.519 10.4881C135.136 10.6001 134.688 10.6561 134.175 10.6561ZM142.562 10.5161C141.983 10.5161 141.488 10.4228 141.078 10.2361C140.667 10.0401 140.354 9.74145 140.14 9.34011C139.934 8.93878 139.832 8.43478 139.832 7.82811V4.88811H138.74C138.637 4.88811 138.553 4.85545 138.488 4.79011C138.422 4.72478 138.39 4.64078 138.39 4.53811V3.58611C138.39 3.48345 138.422 3.39945 138.488 3.33411C138.553 3.26878 138.637 3.23611 138.74 3.23611H139.832V0.926112C139.832 0.823446 139.864 0.739446 139.93 0.674113C140.004 0.60878 140.088 0.576113 140.182 0.576113H141.554C141.656 0.576113 141.74 0.60878 141.806 0.674113C141.871 0.739446 141.904 0.823446 141.904 0.926112V3.23611H143.654C143.747 3.23611 143.826 3.26878 143.892 3.33411C143.957 3.39945 143.99 3.48345 143.99 3.58611V4.53811C143.99 4.64078 143.957 4.72478 143.892 4.79011C143.826 4.85545 143.747 4.88811 143.654 4.88811H141.904V7.66011C141.904 8.01478 141.964 8.29478 142.086 8.50011C142.216 8.69611 142.44 8.79411 142.758 8.79411H143.78C143.873 8.79411 143.952 8.82678 144.018 8.89211C144.083 8.95745 144.116 9.03678 144.116 9.13011V10.1661C144.116 10.2688 144.083 10.3528 144.018 10.4181C143.952 10.4834 143.873 10.5161 143.78 10.5161H142.562ZM148.669 10.6561C147.894 10.6561 147.246 10.5301 146.723 10.2781C146.2 10.0168 145.799 9.64811 145.519 9.17211C145.248 8.69611 145.099 8.14078 145.071 7.50611C145.062 7.31945 145.057 7.10945 145.057 6.87611C145.057 6.63345 145.062 6.42345 145.071 6.24611C145.099 5.60211 145.258 5.04678 145.547 4.58011C145.836 4.10411 146.242 3.74011 146.765 3.48811C147.288 3.22678 147.922 3.09611 148.669 3.09611C149.406 3.09611 150.036 3.22678 150.559 3.48811C151.082 3.74011 151.488 4.10411 151.777 4.58011C152.066 5.04678 152.225 5.60211 152.253 6.24611C152.272 6.42345 152.281 6.63345 152.281 6.87611C152.281 7.10945 152.272 7.31945 152.253 7.50611C152.225 8.14078 152.071 8.69611 151.791 9.17211C151.52 9.64811 151.124 10.0168 150.601 10.2781C150.078 10.5301 149.434 10.6561 148.669 10.6561ZM148.669 9.11611C149.126 9.11611 149.472 8.97611 149.705 8.69611C149.938 8.40678 150.064 7.98678 150.083 7.43611C150.092 7.29611 150.097 7.10945 150.097 6.87611C150.097 6.64278 150.092 6.45611 150.083 6.31611C150.064 5.77478 149.938 5.35945 149.705 5.07011C149.472 4.78078 149.126 4.63611 148.669 4.63611C148.212 4.63611 147.862 4.78078 147.619 5.07011C147.386 5.35945 147.26 5.77478 147.241 6.31611C147.232 6.45611 147.227 6.64278 147.227 6.87611C147.227 7.10945 147.232 7.29611 147.241 7.43611C147.26 7.98678 147.386 8.40678 147.619 8.69611C147.862 8.97611 148.212 9.11611 148.669 9.11611ZM154.081 10.5161C153.988 10.5161 153.909 10.4834 153.843 10.4181C153.778 10.3528 153.745 10.2688 153.745 10.1661V3.58611C153.745 3.49278 153.778 3.41345 153.843 3.34811C153.909 3.27345 153.988 3.23611 154.081 3.23611H155.453C155.547 3.23611 155.626 3.27345 155.691 3.34811C155.766 3.41345 155.803 3.49278 155.803 3.58611V4.14611C156.037 3.85678 156.321 3.63278 156.657 3.47411C157.003 3.31545 157.399 3.23611 157.847 3.23611H158.449C158.543 3.23611 158.622 3.26878 158.687 3.33411C158.753 3.39945 158.785 3.48345 158.785 3.58611V4.79011C158.785 4.89278 158.753 4.97678 158.687 5.04211C158.622 5.10745 158.543 5.14011 158.449 5.14011H157.217C156.807 5.14011 156.485 5.25678 156.251 5.49011C156.018 5.71411 155.901 6.03611 155.901 6.45611V10.1661C155.901 10.2688 155.869 10.3528 155.803 10.4181C155.738 10.4834 155.654 10.5161 155.551 10.5161H154.081Z" fill="#F9F9F9"/>
</svg>
