<svg width="16" height="17" viewBox="0 0 16 17" fill="none" xmlns="http://www.w3.org/2000/svg">
<path d="M13.4688 2.125C14.2891 2.125 15 2.83594 15 3.65625V11.9688C15 13.3086 13.9062 14.375 12.5938 14.375H2.96875C1.875 14.375 1 13.5 1 12.4062V4.3125C1 3.95703 1.27344 3.65625 1.65625 3.65625C2.01172 3.65625 2.3125 3.95703 2.3125 4.3125V12.4062C2.3125 12.7891 2.58594 13.0625 2.96875 13.0625C3.32422 13.0625 3.625 12.7891 3.625 12.4062V3.65625C3.625 2.83594 4.30859 2.125 5.15625 2.125H13.4688ZM13.6875 11.9688V3.65625C13.6875 3.54688 13.5781 3.4375 13.4688 3.4375H5.15625C5.01953 3.4375 4.9375 3.54688 4.9375 3.65625V12.4062C4.9375 12.6523 4.88281 12.8711 4.80078 13.0625H12.5938C13.1953 13.0625 13.6875 12.5977 13.6875 11.9688ZM8.21875 8.6875C8.57422 8.6875 8.875 8.98828 8.875 9.34375C8.875 9.72656 8.57422 10 8.21875 10H6.46875C6.08594 10 5.8125 9.72656 5.8125 9.34375C5.8125 8.98828 6.08594 8.6875 6.46875 8.6875H8.21875ZM12.1562 8.6875C12.5117 8.6875 12.8125 8.98828 12.8125 9.34375C12.8125 9.72656 12.5117 10 12.1562 10H10.4062C10.0234 10 9.75 9.72656 9.75 9.34375C9.75 8.98828 10.0234 8.6875 10.4062 8.6875H12.1562ZM8.21875 10.875C8.57422 10.875 8.875 11.1758 8.875 11.5312C8.875 11.9141 8.57422 12.1875 8.21875 12.1875H6.46875C6.08594 12.1875 5.8125 11.9141 5.8125 11.5312C5.8125 11.1758 6.08594 10.875 6.46875 10.875H8.21875ZM12.1562 10.875C12.5117 10.875 12.8125 11.1758 12.8125 11.5312C12.8125 11.9141 12.5117 12.1875 12.1562 12.1875H10.4062C10.0234 12.1875 9.75 11.9141 9.75 11.5312C9.75 11.1758 10.0234 10.875 10.4062 10.875H12.1562ZM11.9375 4.3125C12.4023 4.3125 12.8125 4.72266 12.8125 5.1875V6.9375C12.8125 7.42969 12.4023 7.8125 11.9375 7.8125H6.6875C6.19531 7.8125 5.8125 7.42969 5.8125 6.9375V5.1875C5.8125 4.72266 6.19531 4.3125 6.6875 4.3125H11.9375Z" fill="#3E3232" fill-opacity="0.5"/>
</svg>
