<svg width="16" height="17" viewBox="0 0 16 17" fill="none" xmlns="http://www.w3.org/2000/svg">
<path d="M7.97266 1.25C8.24609 1.25 8.46484 1.41406 8.57422 1.63281L10.4609 5.48828L14.6445 6.11719C14.8906 6.14453 15.082 6.33594 15.1641 6.55469C15.2461 6.80078 15.1914 7.04688 15 7.23828L11.9648 10.2461L12.6758 14.4844C12.7305 14.7305 12.6211 15.0039 12.4297 15.1406C12.2109 15.2773 11.9375 15.3047 11.7188 15.1953L7.97266 13.1719L4.22656 15.1953C4.00781 15.3047 3.76172 15.2773 3.54297 15.1406C3.35156 15.0039 3.24219 14.7305 3.26953 14.4844L4.00781 10.2461L0.972656 7.23828C0.78125 7.04688 0.726562 6.80078 0.808594 6.55469C0.890625 6.33594 1.08203 6.14453 1.32812 6.11719L5.51172 5.48828L7.39844 1.63281C7.50781 1.41406 7.72656 1.25 7.97266 1.25ZM7.97266 3.41016L6.55078 6.39062C6.44141 6.58203 6.27734 6.71875 6.05859 6.74609L2.80469 7.21094L5.15625 9.53516C5.32031 9.69922 5.375 9.91797 5.34766 10.1367L4.80078 13.3906L7.67188 11.8594C7.86328 11.75 8.10938 11.75 8.30078 11.8594L11.1719 13.3906L10.625 10.1367C10.5703 9.91797 10.6523 9.69922 10.8164 9.53516L13.1406 7.21094L9.91406 6.74609C9.69531 6.71875 9.50391 6.58203 9.42188 6.39062L7.97266 3.41016Z" fill="#3E3232" fill-opacity="0.5"/>
</svg>
