<svg width="19" height="18" viewBox="0 0 19 18" fill="none" xmlns="http://www.w3.org/2000/svg">
<path d="M9.43408 1.5C5.29408 1.5 1.93408 4.86 1.93408 9C1.93408 13.14 5.29408 16.5 9.43408 16.5C13.5741 16.5 16.9341 13.14 16.9341 9C16.9341 4.86 13.5741 1.5 9.43408 1.5ZM12.9141 6.6C12.8016 7.785 12.3141 10.665 12.0666 11.9925C11.9616 12.555 11.7516 12.7425 11.5566 12.765C11.1216 12.8025 10.7916 12.48 10.3716 12.2025C9.71158 11.7675 9.33658 11.4975 8.69908 11.0775C7.95658 10.59 8.43658 10.32 8.86408 9.885C8.97658 9.7725 10.8966 8.025 10.9341 7.8675C10.9393 7.84364 10.9386 7.81888 10.9321 7.79535C10.9255 7.77183 10.9133 7.75025 10.8966 7.7325C10.8516 7.695 10.7916 7.71 10.7391 7.7175C10.6716 7.7325 9.62158 8.43 7.57408 9.81C7.27408 10.0125 7.00408 10.1175 6.76408 10.11C6.49408 10.1025 5.98408 9.96 5.60158 9.8325C5.12908 9.6825 4.76158 9.6 4.79158 9.3375C4.80658 9.2025 4.99408 9.0675 5.34658 8.925C7.53658 7.9725 8.99158 7.3425 9.71908 7.0425C11.8041 6.1725 12.2316 6.0225 12.5166 6.0225C12.5766 6.0225 12.7191 6.0375 12.8091 6.1125C12.8841 6.1725 12.9066 6.255 12.9141 6.315C12.9066 6.36 12.9216 6.495 12.9141 6.6Z" fill="#3E3C3C"/>
</svg>
