<svg width="16" height="17" viewBox="0 0 16 17" fill="none" xmlns="http://www.w3.org/2000/svg">
<path d="M9.3125 9.5625C11.9648 9.5625 14.125 11.7227 14.125 14.375C14.125 14.8672 13.7148 15.25 13.25 15.25H2.75C2.25781 15.25 1.875 14.8672 1.875 14.375C1.875 11.7227 4.00781 9.5625 6.6875 9.5625H9.3125ZM3.1875 13.9375H12.7852C12.5664 12.2148 11.0898 10.875 9.3125 10.875H6.6875C4.88281 10.875 3.40625 12.2148 3.1875 13.9375ZM8 8.25C6.05859 8.25 4.5 6.69141 4.5 4.75C4.5 2.83594 6.05859 1.25 8 1.25C9.91406 1.25 11.5 2.83594 11.5 4.75C11.5 6.69141 9.91406 8.25 8 8.25ZM8 2.5625C6.76953 2.5625 5.8125 3.54688 5.8125 4.75C5.8125 5.98047 6.76953 6.9375 8 6.9375C9.20312 6.9375 10.1875 5.98047 10.1875 4.75C10.1875 3.54688 9.20312 2.5625 8 2.5625Z" fill="#3E3232" fill-opacity="0.5"/>
</svg>
